 <svg  version="1.0" xmlns="http://www.w3.org/2000/svg"  width="450.000000pt" height="450.000000pt" viewBox="0 0 450.000000 450.000000"  preserveAspectRatio="xMidYMid meet">  <g transform="translate(0.000000,450.000000) scale(0.100000,-0.100000)" fill="#ea792e" stroke="none"> <path d="M2282 4495 c7 -7 349 -7 356 -1 3 4 -77 6 -178 6 -101 0 -181 -2 -178 -5z"/> <path d="M2177 4380 c-3 -11 -1 -23 4 -26 5 -3 9 6 9 20 0 31 -6 34 -13 6z"/> <path d="M2181 4296 c-1 -34 2 -47 9 -40 7 7 7 24 1 50 l-9 39 -1 -49z"/> <path d="M2182 4109 c-2 -78 -6 -91 -25 -83 -17 6 -61 -41 -52 -56 3 -6 3 -10 -2 -9 -22 4 -33 -3 -33 -19 0 -10 -4 -22 -10 -28 -12 -12 -20 -124 -9 -124 8 0 13 50 12 98 -1 6 3 12 7 12 5 0 12 9 15 21 9 27 63 81 97 96 27 12 28 14 22 75 -10 92 -20 100 -22 17z"/> <path d="M2060 3760 c0 -5 9 -19 20 -30 11 -11 20 -22 20 -25 0 -7 41 -55 68 -79 35 -31 50 -66 52 -121 3 -77 2 -81 -22 -94 -13 -6 -16 -10 -8 -8 8 2 20 -2 27 -8 14 -14 20 -75 9 -93 -4 -6 -3 -12 3 -12 6 0 18 14 27 32 14 28 15 42 5 117 -7 48 -9 94 -6 103 7 17 -20 78 -34 78 -10 0 -141 131 -141 142 0 4 -4 8 -10 8 -5 0 -10 -4 -10 -10z"/> <path d="M4075 3480 c-4 -7 8 -8 34 -4 28 4 41 3 41 -5 0 -6 7 -11 15 -11 23 0 18 17 -7 24 -35 9 -76 7 -83 -4z"/> <path d="M4027 3454 c-11 -14 -16 -28 -12 -32 4 -4 10 -2 12 5 2 7 12 9 21 6 15 -4 15 -3 2 7 -11 9 -12 13 -2 17 6 2 12 9 12 14 0 16 -15 9 -33 -17z"/> <path d="M3940 3443 c0 -16 -16 -17 -25 -3 -4 7 -11 7 -18 2 -7 -5 -25 -12 -42 -15 -90 -15 -305 -91 -305 -107 0 -10 119 13 145 28 11 6 37 14 58 17 21 3 35 10 32 15 -3 5 7 9 22 9 56 1 84 6 92 20 6 9 18 11 38 7 23 -5 34 -2 53 19 l24 25 -37 -2 c-21 -2 -37 -8 -37 -15z"/> <path d="M1010 3374 c0 -5 26 -22 58 -39 l57 -30 3 -54 c3 -49 4 -52 17 -34 22 31 8 71 -41 121 -30 30 -94 55 -94 36z"/> <path d="M2134 3372 c-8 -6 -34 -56 -34 -67 0 -3 5 -5 10 -5 6 0 10 7 10 15 0 9 6 18 14 21 17 7 28 31 18 38 -5 3 -12 2 -18 -2z"/> <path d="M2380 3316 c0 -31 6 -34 13 -6 3 11 1 23 -4 26 -5 3 -9 -6 -9 -20z"/> <path d="M4492 3310 c0 -19 2 -27 5 -17 2 9 2 25 0 35 -3 9 -5 1 -5 -18z"/> <path d="M941 3280 c-10 -29 -5 -36 22 -31 5 1 26 -8 48 -21 21 -12 42 -19 45 -15 4 4 -2 10 -12 14 -10 4 -28 15 -38 25 -10 9 -23 15 -28 12 -4 -3 -8 4 -8 15 0 33 -17 33 -29 1z"/> <path d="M2080 3264 c0 -35 24 -99 41 -109 5 -4 8 -13 5 -21 -3 -9 3 -18 17 -23 12 -5 29 -22 37 -37 8 -16 19 -32 25 -36 5 -4 6 -8 1 -8 -5 0 -1 -9 9 -20 23 -26 11 -39 -14 -16 -13 12 -21 14 -26 6 -4 -6 8 -17 29 -25 31 -13 36 -20 36 -47 l0 -31 25 23 c30 28 32 60 6 84 -11 10 -25 31 -32 48 -10 25 -10 34 4 58 l17 28 -37 7 c-47 9 -89 38 -108 76 -9 16 -14 30 -13 31 1 2 -3 12 -10 23 -10 18 -11 17 -12 -11z"/> <path d="M3254 3266 c-9 -22 0 -61 13 -59 6 2 36 -21 66 -50 161 -156 229 -313 183 -420 -19 -44 -61 -85 -94 -93 -15 -4 -30 -12 -34 -18 -29 -44 33 -13 95 46 52 51 63 70 78 137 9 45 8 55 -18 118 -16 37 -73 132 -127 211 -88 129 -100 142 -127 142 -16 0 -32 -6 -35 -14z"/> <path d="M2382 3218 c-2 -66 4 -88 26 -88 13 0 13 2 -1 18 -9 10 -17 41 -20 72 l-3 55 -2 -57z"/> <path d="M3460 3256 c0 -3 14 -12 32 -20 34 -18 55 -11 23 7 -21 12 -55 20 -55 13z"/> <path d="M1345 3173 c12 -70 35 -95 129 -143 61 -31 93 -54 103 -73 8 -16 22 -36 32 -46 27 -27 136 -101 149 -101 7 0 12 -5 12 -11 0 -5 5 -7 10 -4 11 7 -22 36 -90 79 -63 40 -90 66 -90 88 0 15 5 18 21 13 19 -6 19 -4 -6 34 -26 39 -45 46 -45 15 0 -20 -11 -18 -50 11 -19 14 -39 25 -45 25 -23 0 -88 65 -106 107 -23 53 -34 56 -24 6z"/> <path d="M861 3155 c-13 -19 -28 -35 -32 -35 -5 0 -23 -13 -41 -30 -17 -16 -26 -30 -19 -30 8 0 9 -5 2 -17 -9 -18 -333 -344 -380 -383 -30 -25 -21 -38 11 -16 13 9 78 71 145 138 67 67 124 120 127 117 3 -3 -1 -24 -10 -47 -11 -34 -12 -56 -4 -104 5 -33 12 -63 16 -67 4 -3 4 10 1 31 -3 20 -3 39 0 42 3 3 7 21 8 40 3 54 57 166 132 274 23 35 43 67 43 72 0 6 6 10 14 10 12 0 26 20 26 36 0 14 -18 -1 -39 -31z"/> <path d="M1095 3180 c-4 -6 -26 -20 -51 -31 -24 -12 -44 -25 -44 -30 0 -5 -7 -9 -15 -9 -30 0 -151 -134 -189 -210 -41 -83 -46 -133 -17 -195 52 -114 195 -169 344 -130 21 6 27 4 27 -8 0 -8 6 -17 14 -20 9 -4 12 -14 9 -26 -3 -12 -1 -21 6 -21 6 0 11 -4 11 -10 0 -13 -47 -13 -55 0 -4 6 -11 8 -16 5 -5 -4 -9 3 -9 14 0 11 -5 23 -12 27 -7 5 -9 1 -6 -13 3 -12 2 -26 -2 -33 -11 -19 -40 -4 -40 20 0 11 -4 20 -10 20 -5 0 -10 -8 -10 -18 0 -10 -3 -21 -6 -25 -9 -9 -34 4 -34 17 0 7 -24 18 -52 25 -29 7 -75 25 -102 39 -51 28 -116 102 -116 133 0 31 -17 30 -24 -2 -6 -31 7 -69 24 -69 6 0 9 -5 8 -11 -8 -32 200 -139 282 -144 18 -1 36 -7 38 -14 5 -16 -27 -26 -41 -12 -15 15 -58 13 -81 -4 -13 -10 -25 -11 -43 -4 -39 15 -66 11 -93 -14 -19 -18 -37 -23 -77 -23 -60 0 -93 -22 -93 -61 0 -14 4 -21 10 -18 5 3 10 1 10 -4 0 -6 -7 -11 -15 -11 -8 0 -15 5 -15 10 0 6 -18 10 -39 10 -31 0 -44 -6 -61 -27 -14 -18 -17 -30 -10 -37 23 -23 10 -34 -44 -32 -40 1 -59 -4 -75 -18 -29 -26 -22 -29 28 -11 34 12 47 12 64 3 12 -7 27 -11 32 -9 12 4 49 10 85 15 14 2 37 7 53 11 26 7 39 -7 17 -20 -5 -3 -7 -12 -3 -20 3 -8 0 -15 -6 -15 -6 0 -11 -4 -11 -9 0 -14 73 18 83 35 4 8 17 14 28 14 11 0 17 -5 14 -10 -4 -6 5 -20 19 -31 18 -14 26 -30 26 -51 l0 -31 -22 19 c-13 10 -17 12 -10 4 6 -8 12 -20 12 -27 0 -17 -17 -17 -17 0 0 6 -4 20 -8 30 -4 10 -3 17 4 17 6 0 8 6 5 14 -8 20 -74 16 -75 -4 0 -9 -3 -10 -5 -4 -4 9 -13 9 -35 1 -24 -9 -32 -9 -38 2 -10 15 -41 8 -41 -9 0 -6 4 -9 10 -5 5 3 16 -8 25 -25 8 -16 21 -30 27 -30 6 0 21 -11 33 -24 16 -17 19 -28 13 -40 -5 -9 -6 -21 -3 -26 10 -17 -10 -11 -26 8 -9 9 -25 22 -35 29 -19 12 -19 13 0 28 19 15 19 15 -1 15 -31 0 -53 -10 -53 -24 0 -16 -28 -16 -34 -1 -7 19 8 35 37 37 22 2 24 5 14 18 -27 34 -48 39 -40 10 6 -21 -6 -27 -23 -11 -5 6 -23 -3 -46 -24 -21 -18 -38 -35 -38 -37 0 -1 18 -3 41 -4 22 -1 37 2 32 5 -20 13 -22 39 -2 44 16 4 17 2 8 -14 -5 -11 -6 -19 0 -19 5 0 12 -11 15 -24 4 -15 17 -28 36 -35 29 -9 49 -35 37 -47 -3 -3 -13 -1 -24 5 -10 5 -27 12 -38 16 -16 5 -17 8 -5 15 11 7 11 10 2 10 -7 0 -15 -6 -18 -14 -3 -8 -12 -12 -21 -9 -12 5 -12 7 -1 14 7 5 9 9 3 10 -13 1 -45 7 -67 11 -10 2 -21 8 -25 13 -4 4 -2 5 5 1 6 -4 12 -3 12 3 0 20 -18 20 -35 0 -18 -19 -18 -20 6 -37 13 -9 28 -16 32 -14 13 4 48 -18 42 -27 -2 -5 -18 -11 -35 -13 -26 -4 -30 -1 -30 19 0 17 -6 23 -21 23 -12 0 -19 -5 -16 -12 2 -7 10 -12 17 -10 6 1 10 -2 8 -8 -6 -19 -22 -14 -33 9 -5 11 -13 21 -17 21 -3 0 -1 13 5 29 6 17 15 28 19 25 4 -3 8 0 8 6 0 8 -7 9 -17 5 -10 -3 -22 -7 -28 -8 -5 -1 -15 -8 -21 -16 -7 -9 -13 -10 -17 -4 -8 13 18 36 46 40 12 2 27 9 34 16 16 16 0 43 -18 31 -8 -4 -20 -9 -29 -10 -8 -1 -24 -5 -35 -10 -18 -7 -19 -6 -5 11 14 18 14 18 -12 0 -28 -21 -36 -35 -17 -35 5 0 7 -5 4 -10 -9 -14 8 -13 23 2 9 9 12 9 12 1 0 -7 -4 -14 -9 -18 -6 -3 -8 -14 -6 -24 3 -15 -2 -18 -23 -17 -15 1 -33 5 -41 10 -10 6 -12 5 -7 -3 8 -12 -4 -19 -41 -24 -26 -4 -53 -25 -53 -43 0 -10 5 -10 27 2 16 7 36 14 46 14 10 0 27 5 39 11 24 13 35 5 20 -14 -9 -10 -8 -17 1 -27 7 -7 1 -6 -12 3 -21 14 -26 14 -38 1 -17 -16 -37 -19 -27 -3 4 8 0 7 -15 -1 -28 -14 -18 -30 20 -30 18 0 28 4 24 10 -3 6 3 10 14 10 17 0 21 -6 21 -30 0 -16 -3 -30 -7 -30 -17 0 -13 -98 7 -154 25 -73 105 -161 150 -164 16 -1 30 2 30 8 0 5 -8 10 -18 10 -17 0 -102 69 -102 84 0 4 -10 20 -21 36 -13 17 -20 37 -16 49 3 12 1 21 -4 21 -12 0 -6 114 6 120 6 3 12 -6 13 -20 2 -14 8 -29 12 -34 5 -5 6 -21 3 -36 -3 -19 0 -29 11 -33 12 -5 14 -14 10 -37 -6 -25 -3 -30 14 -30 22 0 34 -22 25 -46 -5 -13 -2 -15 14 -10 25 8 55 -18 46 -39 -3 -10 -1 -13 8 -10 8 3 25 -5 39 -18 18 -17 32 -21 50 -17 24 6 24 6 -7 13 -30 6 -32 9 -27 37 5 24 3 30 -11 30 -9 0 -19 9 -22 20 -4 14 -14 20 -33 20 -16 0 -36 8 -46 17 -17 17 -17 18 0 21 9 2 23 -1 30 -7 9 -8 19 -4 36 14 l23 25 -23 0 c-13 0 -31 6 -39 14 -9 8 -30 22 -46 30 -18 10 -23 16 -13 16 9 0 26 12 37 27 24 29 35 25 36 -15 0 -22 5 -28 28 -30 15 -2 27 1 27 7 0 6 -9 11 -21 11 -14 0 -19 5 -17 18 2 9 10 16 17 14 20 -4 51 8 51 20 0 6 -3 8 -7 5 -3 -4 -17 0 -29 8 -15 10 -24 11 -26 3 -2 -6 -11 -4 -22 7 -13 13 -20 15 -29 6 -18 -18 -22 -13 -23 29 -1 39 -1 40 16 20 21 -24 32 -26 24 -5 -4 8 -1 15 5 15 6 0 11 -7 11 -15 0 -8 7 -15 15 -15 8 0 15 -4 15 -9 0 -19 44 -19 68 0 24 18 24 19 3 19 -11 0 -21 4 -21 9 0 5 -10 11 -22 13 -20 3 -20 4 6 18 26 13 29 13 58 -19 l30 -32 -20 -22 c-12 -12 -33 -48 -47 -80 -32 -68 -28 -105 16 -141 18 -16 29 -34 29 -50 0 -24 2 -25 20 -14 27 17 26 23 -15 72 -19 24 -35 54 -35 68 0 36 77 215 87 204 4 -3 15 8 25 24 21 35 23 44 6 34 -7 -5 -8 -3 -3 5 5 9 10 10 18 2 6 -6 26 -11 44 -11 18 0 33 -5 33 -12 0 -6 3 -9 6 -5 3 3 -1 16 -10 29 -19 27 -21 45 -3 30 10 -9 17 -6 30 8 9 11 17 26 17 33 0 16 58 39 66 26 12 -20 23 -8 14 16 -7 20 -6 25 5 25 8 0 15 -8 15 -17 0 -11 3 -14 8 -7 4 6 15 10 26 8 10 -1 29 1 42 6 13 5 26 5 29 1 8 -14 45 -1 45 16 0 11 3 11 14 1 10 -9 11 -15 2 -20 -8 -6 -7 -8 2 -8 8 0 43 28 78 62 64 61 68 77 21 78 -13 0 -18 -6 -15 -22 3 -22 -7 -36 -45 -67 -15 -12 -17 -11 -17 3 0 9 6 16 13 16 8 0 14 6 14 14 0 9 -7 12 -16 8 -9 -3 -13 -2 -9 3 11 12 -32 45 -59 45 -12 0 -23 4 -23 8 0 4 51 7 113 7 105 0 113 1 134 24 20 20 24 21 37 8 13 -12 11 -17 -17 -38 -18 -13 -34 -24 -37 -25 -3 0 -36 -31 -75 -69 -38 -38 -61 -61 -49 -52 11 9 27 17 34 17 20 0 232 213 219 221 -6 3 5 15 25 27 20 12 36 25 36 29 0 5 -45 4 -100 -3 -71 -7 -106 -16 -118 -28 -14 -14 -15 -18 -3 -25 10 -7 8 -12 -10 -25 -27 -19 -59 -21 -59 -4 0 7 14 27 32 45 24 25 28 33 15 33 -9 0 -17 -4 -17 -10 0 -23 -30 -7 -49 26 -12 19 -21 37 -21 40 0 10 28 3 65 -16 22 -11 50 -20 64 -20 23 0 23 1 7 19 -26 29 -3 34 35 8 24 -16 43 -21 67 -17 l32 5 -27 26 c-23 22 -59 41 -83 44 -17 2 -30 20 -30 41 0 17 5 24 20 24 13 0 20 -7 20 -18 0 -15 6 -17 36 -14 24 3 34 1 30 -6 -9 -15 4 -42 20 -42 7 0 18 9 24 19 13 25 -3 71 -25 71 -20 0 -19 7 7 59 17 32 20 45 11 48 -7 3 -13 12 -13 21 0 10 -16 32 -35 50 -29 26 -39 30 -55 22 -21 -11 -42 -44 -38 -57 2 -4 -3 -27 -11 -51 -11 -32 -21 -44 -40 -48 -14 -3 -33 -9 -41 -13 -29 -15 -151 -2 -180 19 -16 11 -32 20 -37 21 -4 0 -23 19 -42 40 -75 87 -47 209 81 352 31 35 86 84 122 108 36 24 66 47 66 52 0 10 -8 9 -15 -3z m179 -465 c21 -32 20 -45 -4 -45 -11 0 -20 -4 -20 -10 0 -5 11 -10 24 -10 28 0 43 -28 20 -37 -8 -3 -20 -1 -27 6 -6 6 -15 11 -19 11 -16 0 -7 -19 24 -51 39 -39 22 -53 -23 -20 -15 11 -35 21 -44 21 -23 0 -29 27 -11 45 16 16 21 40 17 79 -2 24 17 46 34 40 8 -3 21 -16 29 -29z m-95 -261 c-5 -6 -19 -10 -29 -7 -30 8 -24 20 10 20 22 0 27 -3 19 -13z m-176 -41 c23 -15 45 -32 49 -38 4 -5 13 -10 20 -10 16 0 11 -87 -5 -97 -17 -11 -157 -10 -157 1 0 5 8 12 18 14 10 3 5 6 -13 7 l-30 2 35 10 c35 10 35 10 10 20 -66 26 -130 70 -130 90 0 13 78 9 89 -4 64 -80 62 -79 126 -76 55 3 58 4 34 15 -15 6 -29 18 -32 25 -4 8 -6 7 -6 -4 -1 -10 -5 -18 -9 -18 -9 0 -72 74 -72 84 0 14 34 4 73 -21z m-231 -59 c13 -12 31 -24 41 -27 20 -7 22 -23 5 -33 -6 -4 -17 1 -24 11 -12 16 -15 16 -36 3 -21 -14 -26 -13 -70 14 -68 42 -64 54 17 53 30 0 51 -7 67 -21z m551 -3 c-14 -12 -18 -22 -12 -28 6 -6 1 -17 -14 -31 -21 -20 -26 -21 -36 -8 -10 12 -5 21 26 50 21 20 43 35 48 35 6 0 0 -8 -12 -18z m-93 -23 c-1 -26 -39 -60 -62 -55 l-23 4 23 8 c12 4 22 15 22 24 0 10 3 21 7 24 11 12 33 8 33 -5z m-350 -25 c0 -3 -10 -13 -22 -22 -22 -18 -22 -18 10 -13 27 4 32 1 32 -16 0 -17 7 -21 37 -24 29 -2 40 -9 53 -33 14 -28 14 -33 -1 -63 -16 -32 -18 -33 -28 -14 -8 15 -8 21 0 24 8 3 6 9 -4 20 -9 8 -13 19 -9 23 4 5 -2 3 -12 -3 -15 -7 -28 -6 -54 8 -22 12 -45 17 -66 13 -22 -3 -36 0 -45 11 -7 9 -21 16 -29 16 -13 0 -12 3 4 16 19 15 19 16 -1 9 -11 -4 -29 -10 -40 -12 -18 -5 -19 -4 -4 11 18 20 109 34 109 17 0 -6 -5 -11 -12 -11 -6 0 -9 -3 -5 -6 7 -8 36 8 35 20 -2 16 25 44 39 39 7 -3 13 -7 13 -10z m-268 -14 c2 -6 18 -12 35 -13 42 -2 52 -13 22 -25 -15 -5 -48 -5 -83 1 -63 9 -76 14 -76 28 0 17 96 26 102 9z m93 -89 c-12 -13 -22 -17 -28 -11 -13 13 1 31 25 31 21 0 21 -1 3 -20z m185 -32 c19 -29 31 -68 20 -68 -4 0 -13 15 -19 33 -9 24 -14 28 -20 18 -5 -7 -14 -11 -20 -7 -7 5 -7 13 2 26 15 25 19 25 37 -2z m-170 -62 c0 -8 8 -21 19 -28 13 -9 16 -19 10 -33 -8 -20 -8 -20 -14 0 -7 22 -56 55 -83 56 -14 0 -13 2 3 9 32 14 65 12 65 -4z m-384 -125 c-13 -14 -14 -20 -5 -23 10 -3 8 -10 -4 -28 -9 -14 -17 -42 -17 -63 0 -26 -4 -37 -12 -35 -20 7 -21 53 -3 87 8 17 14 33 13 35 -3 5 33 46 40 46 3 0 -3 -9 -12 -19z m244 -62 c0 -5 -7 -9 -15 -9 -8 0 -15 7 -15 15 0 9 6 12 15 9 8 -4 15 -10 15 -15z m-220 -111 c0 -17 -20 -17 -29 1 -16 29 -14 33 9 19 11 -7 20 -16 20 -20z m20 -114 c0 -9 -5 -14 -12 -12 -18 6 -21 28 -4 28 9 0 16 -7 16 -16z"/> <path d="M830 2229 c-14 -11 -19 -18 -12 -14 16 8 94 -4 87 -14 -2 -5 8 -6 23 -3 26 6 25 6 -11 15 -21 5 -41 16 -44 23 -7 19 -13 17 -43 -7z"/> <path d="M1236 3153 c-10 -55 -1 -79 46 -131 43 -47 44 -65 2 -38 -33 22 -44 12 -16 -14 30 -29 66 -40 122 -40 80 0 145 -19 212 -62 35 -22 66 -45 69 -49 5 -9 69 -31 69 -25 0 2 -29 20 -65 41 -36 21 -72 48 -80 61 -9 15 -41 31 -92 48 -171 55 -204 80 -237 181 l-23 70 -7 -42z"/> <path d="M3032 3173 c0 -5 -2 -16 -7 -26 -11 -25 2 -34 22 -15 16 17 12 48 -7 48 -5 0 -9 -3 -8 -7z"/> <path d="M3686 3127 c7 -19 18 -20 288 -42 166 -14 365 -38 499 -61 23 -4 27 -1 27 20 0 22 -5 24 -67 30 -38 4 -102 13 -143 21 -41 8 -120 17 -175 20 -55 3 -113 8 -130 10 -16 2 -92 7 -168 10 -122 7 -137 6 -131 -8z"/> <path d="M3525 3119 c-9 -14 -6 -17 67 -54 35 -17 113 -60 173 -94 61 -35 216 -118 345 -183 129 -66 242 -127 250 -134 10 -10 11 -17 3 -25 -8 -8 -20 -6 -44 6 -38 20 -196 29 -216 13 -14 -11 -18 -50 -6 -61 3 -4 14 0 23 8 23 21 105 25 203 9 100 -16 129 -26 157 -54 l20 -20 0 34 c0 28 -7 40 -33 60 -19 15 -39 26 -44 26 -6 0 -16 7 -23 15 -10 12 -168 104 -255 147 -16 8 -73 38 -125 65 -52 28 -171 89 -265 137 -93 48 -175 94 -181 102 -13 17 -40 19 -49 3z"/> <path d="M3126 3092 c-13 -40 -57 -82 -113 -108 -31 -13 -53 -27 -51 -29 3 -3 26 -1 53 4 37 7 55 18 82 47 34 39 49 73 41 96 -3 8 -8 4 -12 -10z"/> <path d="M2010 3074 c0 -4 13 -21 29 -39 21 -24 32 -30 40 -22 17 17 13 45 -8 57 -21 11 -61 14 -61 4z"/> <path d="M1677 3063 c-8 -12 58 -80 85 -89 17 -5 22 -18 19 -54 0 -10 1 -11 5 -2 3 6 12 12 20 12 25 0 15 17 -28 51 -24 18 -55 46 -69 63 -16 18 -28 25 -32 19z"/> <path d="M2459 3041 c-13 -11 -21 -22 -17 -26 8 -8 58 23 58 36 0 14 -16 10 -41 -10z"/> <path d="M3585 3000 c-8 -13 23 -58 44 -65 10 -3 80 -67 157 -144 216 -214 265 -266 258 -273 -3 -4 -29 2 -57 13 -28 11 -80 22 -116 25 -36 3 -85 10 -107 16 -43 10 -53 7 -169 -55 -47 -25 -106 -31 -130 -13 -19 14 -18 16 36 39 43 20 63 37 92 79 36 51 63 118 49 118 -4 0 -16 -15 -26 -34 -33 -61 -186 -200 -243 -220 -32 -11 -143 -16 -163 -6 -3 1 -20 1 -38 0 -18 -1 -39 3 -46 9 -10 9 -15 8 -20 -4 -14 -37 -79 -4 -82 42 -1 17 -7 40 -14 52 -6 13 -9 30 -5 39 4 9 8 38 10 64 4 53 4 54 -95 73 -37 8 -69 9 -74 5 -14 -14 11 -38 46 -45 45 -10 98 -45 98 -63 0 -10 -6 -25 -13 -34 -18 -23 -5 -144 17 -166 37 -37 384 -29 433 10 7 5 14 5 18 -2 17 -28 162 -3 202 36 28 27 72 37 117 25 25 -6 72 -11 106 -11 74 0 163 -29 237 -76 42 -27 55 -31 59 -20 10 27 -347 413 -507 549 -60 50 -64 52 -74 37z"/> <path d="M582 2972 c-11 -11 -22 -18 -25 -16 -2 2 -17 -11 -34 -28 -17 -18 -52 -51 -78 -73 -27 -22 -54 -46 -61 -52 -7 -7 -16 -13 -19 -13 -12 0 -155 -149 -155 -162 0 -14 21 4 140 119 143 137 198 188 210 191 15 3 53 43 47 49 -3 2 -14 -4 -25 -15z"/> <path d="M2056 2972 c-3 -5 -3 -18 0 -29 7 -24 87 -63 128 -63 14 0 26 -4 26 -9 0 -10 -61 -71 -71 -71 -35 0 -122 70 -148 119 -12 21 -51 48 -51 34 0 -4 18 -30 40 -58 22 -27 43 -58 46 -68 4 -10 27 -23 58 -32 60 -18 144 -94 129 -118 -11 -19 -72 -70 -103 -85 -14 -7 -36 -26 -50 -43 -14 -16 -42 -47 -62 -69 -21 -21 -34 -41 -30 -44 14 -8 77 11 74 22 -3 16 55 15 60 0 3 -9 38 -14 114 -16 60 -2 106 0 102 4 -4 4 -3 13 3 21 8 9 38 13 99 13 91 0 102 3 93 26 -4 11 -27 14 -93 14 -87 0 -89 -1 -115 -31 -14 -17 -29 -28 -33 -24 -4 4 -7 46 -8 93 0 48 -4 98 -7 111 -5 18 -2 24 13 28 11 3 20 7 20 9 0 2 -16 39 -35 83 -19 43 -35 84 -35 89 0 6 -29 24 -65 41 -36 17 -68 38 -71 46 -7 16 -20 20 -28 7z m191 -374 c3 -86 6 -83 -102 -80 -52 2 -95 7 -95 12 0 5 29 23 64 40 35 18 74 43 87 56 34 37 45 30 46 -28z m-47 -128 c0 -5 -20 -10 -45 -10 -25 0 -45 5 -45 10 0 6 20 10 45 10 25 0 45 -4 45 -10z"/> <path d="M3173 2940 c-18 -11 -33 -26 -33 -35 0 -23 -29 -32 -120 -37 -63 -3 -97 -10 -133 -28 -26 -13 -47 -27 -47 -32 0 -11 14 -10 25 1 20 19 121 41 187 41 65 0 70 2 106 38 72 71 78 91 15 52z"/> <path d="M2878 2943 c-10 -2 -18 -9 -18 -14 0 -14 16 -11 30 6 7 8 11 14 9 14 -2 -1 -12 -3 -21 -6z"/> <path d="M1234 2895 c39 -35 47 -48 38 -57 -7 -7 -12 -15 -12 -19 0 -11 74 -4 99 10 38 21 174 7 234 -24 54 -28 57 -29 57 -17 0 13 -79 49 -130 61 -25 6 -84 11 -132 11 -67 0 -90 4 -103 16 -21 21 -84 64 -93 64 -4 -1 15 -21 42 -45z"/> <path d="M2420 2925 c-19 -23 -7 -39 13 -17 10 11 14 23 9 26 -5 3 -15 -1 -22 -9z"/> <path d="M4460 2927 c-28 -14 -38 -55 -21 -84 9 -16 10 -16 11 -1 0 9 11 25 25 36 14 11 25 29 25 41 0 24 -6 25 -40 8z"/> <path d="M1860 2922 c0 -5 7 -16 16 -23 14 -12 16 -11 13 5 -4 20 -29 35 -29 18z"/> <path d="M1824 2826 c25 -30 46 -60 46 -68 0 -7 22 -32 48 -55 48 -41 49 -41 66 -22 24 28 49 20 62 -21 6 -19 16 -36 21 -37 10 -4 23 41 23 78 0 20 -47 49 -80 49 -11 0 -20 7 -20 15 0 22 -37 55 -60 55 -15 0 -20 -7 -20 -25 0 -21 -3 -23 -22 -16 -16 6 -23 17 -23 37 -1 20 -9 33 -30 46 -54 33 -58 19 -11 -36z m144 -48 c20 -20 14 -40 -10 -36 -15 2 -24 11 -26 26 -4 24 16 30 36 10z"/> <path d="M2365 2830 c-40 -25 -55 -39 -55 -50 0 -7 6 -7 18 -1 9 5 32 16 50 23 19 8 32 20 32 30 0 22 -7 22 -45 -2z"/> <path d="M2746 2831 c-3 -5 0 -11 8 -14 15 -6 26 1 26 15 0 11 -27 10 -34 -1z"/> <path d="M2585 2817 c-10 -8 -14 -17 -9 -20 12 -7 84 15 84 25 0 13 -55 9 -75 -5z"/> <path d="M3015 2810 c-3 -5 3 -10 15 -10 12 0 18 5 15 10 -3 6 -10 10 -15 10 -5 0 -12 -4 -15 -10z"/> <path d="M1393 2797 c-5 -8 14 -26 27 -27 3 0 11 9 18 20 11 18 10 20 -14 18 -14 -2 -28 -6 -31 -11z"/> <path d="M1325 2780 c-7 -11 12 -51 29 -62 16 -11 26 -10 26 3 0 18 -48 70 -55 59z"/> <path d="M1580 2766 c0 -18 -7 -25 -31 -30 -18 -3 -28 -10 -24 -16 4 -7 19 -8 35 -5 22 5 31 2 39 -14 6 -11 24 -28 41 -37 16 -10 27 -21 24 -26 -3 -4 4 -8 15 -8 11 0 23 5 26 10 13 21 85 11 121 -16 19 -15 32 -29 29 -32 -4 -5 15 -18 53 -38 8 -4 20 0 29 9 14 14 13 16 -5 26 -11 6 -22 22 -26 35 -8 32 -63 71 -101 71 -26 0 -30 4 -33 29 -2 16 -10 35 -18 43 -12 13 -15 12 -20 -2 -4 -8 0 -23 9 -33 27 -31 -8 -86 -36 -57 -10 10 -25 13 -44 9 -24 -5 -33 -1 -46 20 -11 16 -15 35 -11 50 4 16 1 25 -10 29 -12 5 -16 0 -16 -17z"/> <path d="M3080 2779 c0 -7 8 -18 18 -26 12 -10 14 -16 5 -19 -19 -8 -16 -34 3 -34 23 0 11 -24 -14 -28 -12 -2 -22 -8 -22 -13 0 -6 9 -7 20 -4 16 5 20 2 20 -14 0 -12 7 -21 15 -21 17 0 20 16 5 25 -8 5 -8 11 -1 19 10 12 9 46 -3 79 -3 9 -8 24 -11 32 -5 17 -35 20 -35 4z"/> <path d="M2627 2766 c-3 -8 -3 -16 0 -19 9 -10 33 5 33 19 0 18 -26 18 -33 0z"/> <path d="M1640 2750 c0 -13 5 -20 13 -17 6 2 12 10 12 17 0 7 -6 15 -12 18 -8 2 -13 -5 -13 -18z"/> <path d="M4481 2733 c0 -10 4 -27 9 -38 7 -16 9 -13 9 18 1 20 -3 37 -9 37 -5 0 -10 -8 -9 -17z"/> <path d="M2517 2733 c-18 -17 -5 -33 27 -33 29 0 46 13 46 36 0 7 -66 5 -73 -3z"/> <path d="M2420 2706 c0 -15 12 -34 31 -50 26 -22 34 -24 46 -14 13 11 13 14 -5 28 -10 9 -24 26 -31 38 -16 30 -41 28 -41 -2z"/> <path d="M2665 2680 c-28 -30 -29 -54 0 -30 10 8 32 10 72 5 43 -4 63 -2 77 8 19 14 19 15 -13 31 -26 14 -35 15 -47 5 -11 -9 -18 -9 -26 -1 -18 18 -32 14 -63 -18z"/> <path d="M1395 2628 c1 -35 3 -71 4 -80 1 -10 6 -18 12 -18 8 0 10 19 5 66 -5 45 -3 71 5 80 9 11 7 14 -9 14 -19 0 -20 -5 -17 -62z"/> <path d="M2336 2681 c-3 -5 16 -27 42 -50 57 -51 69 -37 16 19 -39 41 -49 46 -58 31z"/> <path d="M2530 2636 c0 -20 77 -79 95 -72 21 8 19 24 -5 31 -11 4 -28 17 -36 31 -18 26 -54 33 -54 10z"/> <path d="M1982 2611 l-21 -29 29 11 c17 6 30 17 30 24 0 24 -17 21 -38 -6z"/> <path d="M311 2590 c-41 -35 -38 -48 4 -20 17 11 26 20 20 20 -5 1 1 7 15 15 14 8 19 14 10 14 -8 0 -30 -13 -49 -29z"/> <path d="M1448 2569 c5 -44 -20 -120 -44 -140 -14 -11 -15 -8 -9 27 9 46 -10 37 -24 -13 -9 -30 -8 -31 26 -29 24 1 38 -4 44 -16 7 -14 -3 -31 -52 -83 -56 -59 -91 -84 -73 -52 5 9 4 9 -6 0 -24 -22 -19 -39 16 -52 39 -14 41 -21 14 -46 -17 -15 -24 -16 -42 -6 l-23 12 23 -5 c23 -4 23 -4 6 15 -16 18 -8 27 12 12 5 -5 1 0 -9 10 -21 18 -37 22 -37 9 0 -5 -28 -33 -62 -61 l-62 -53 59 7 c33 4 75 13 93 21 17 7 32 9 32 3 0 -5 -5 -9 -11 -9 -6 0 -9 -7 -5 -15 4 -12 -4 -15 -39 -15 -29 0 -45 -4 -45 -12 0 -10 -2 -10 -8 -1 -11 17 -100 14 -134 -3 -16 -8 -28 -16 -28 -17 0 -2 72 0 169 5 53 2 66 0 66 -12 0 -9 -11 -15 -28 -17 -15 -1 -49 -13 -74 -27 -25 -14 -52 -26 -59 -26 -8 0 -14 -4 -14 -9 0 -5 -9 -13 -20 -16 -25 -8 -28 -55 -4 -55 14 0 14 2 3 16 -11 14 -10 18 6 30 25 18 44 18 51 -1 4 -8 10 -12 15 -9 15 9 10 24 -7 24 -26 0 -6 18 29 25 17 4 41 13 52 19 11 7 28 12 39 10 10 -1 29 1 42 6 23 9 23 10 9 50 -8 22 -10 40 -5 40 6 0 10 6 10 14 0 18 49 76 50 59 0 -6 -5 -24 -12 -40 -6 -15 -13 -39 -15 -53 -3 -20 -1 -22 7 -10 9 12 10 8 5 -16 l-6 -31 101 -2 c110 -2 128 -7 179 -45 19 -14 40 -26 45 -26 6 0 3 5 -6 11 -10 5 -18 15 -18 21 0 6 -19 28 -42 49 l-42 38 28 11 c15 5 39 7 53 4 25 -7 25 -8 8 -20 -24 -18 -4 -18 42 -2 32 12 43 31 23 43 -17 10 -90 14 -95 4 -8 -12 -55 -12 -55 1 0 6 9 10 19 10 11 0 32 11 47 25 16 15 22 25 13 25 -10 0 -11 2 -2 8 7 4 12 30 12 62 -1 122 0 135 14 122 7 -8 14 -55 17 -125 5 -105 6 -112 27 -115 16 -2 21 1 18 15 -2 10 -4 20 -4 23 -1 3 -5 -1 -9 -7 -5 -8 -8 1 -9 22 -1 34 9 46 22 25 3 -5 11 -10 17 -10 6 0 3 11 -6 25 -17 27 -21 55 -7 55 5 0 19 -11 32 -25 13 -13 27 -25 30 -25 10 0 116 -108 122 -124 3 -8 -1 -17 -9 -20 -24 -9 -6 -26 24 -24 57 4 48 36 -28 96 -28 22 -46 43 -41 46 5 4 12 2 16 -3 3 -6 11 -9 18 -7 7 1 9 1 4 -1 -9 -6 1 -23 14 -23 6 0 7 5 3 12 -4 7 -3 8 4 4 6 -4 9 -13 6 -20 -3 -7 2 -19 11 -26 14 -12 15 -10 11 15 -3 15 -6 28 -8 29 -2 1 -26 20 -55 44 -29 24 -54 38 -58 32 -3 -5 1 -10 9 -10 9 0 16 -7 16 -15 0 -8 -7 -15 -16 -15 -8 0 -12 5 -9 11 4 6 -3 13 -14 16 -20 5 -20 6 -4 19 17 13 16 15 -8 37 -92 79 -119 98 -130 92 -6 -4 -15 -2 -19 5 -6 10 -21 11 -62 4 -49 -8 -53 -11 -50 -34 1 -14 -2 -47 -8 -75 -16 -72 -15 -136 1 -146 11 -7 10 -9 -3 -9 -24 0 -23 -16 2 -23 20 -5 29 -47 10 -47 -5 0 -10 7 -10 15 0 9 -11 21 -25 27 -18 8 -25 19 -25 40 0 16 -5 39 -12 51 -11 21 -11 21 -19 2 -5 -12 -6 3 -3 35 3 30 9 59 14 64 16 16 21 1 9 -32 -8 -25 -8 -36 5 -53 14 -21 15 -20 15 17 0 22 3 56 7 76 5 30 3 39 -10 44 -23 9 -20 27 4 19 15 -5 20 -2 20 10 0 13 -6 16 -24 11 -27 -7 -56 1 -56 15 0 5 26 9 58 9 71 0 93 12 56 29 -21 9 -29 9 -35 0 -4 -7 -18 -10 -33 -7 -15 3 -29 1 -32 -3 -7 -13 -24 -11 -24 2 0 6 7 26 16 45 13 26 14 37 5 48 -8 10 -9 16 -1 21 22 14 5 55 -24 55 -1 0 0 -18 2 -41z m305 -225 c10 -13 26 -26 37 -29 25 -8 26 -25 3 -25 -10 1 -33 22 -52 47 -33 45 -23 51 12 7z m-115 -4 c3 -17 0 -21 -12 -17 -8 3 -18 2 -21 -3 -4 -6 1 -10 11 -10 14 0 16 -9 9 -77 -8 -88 -10 -94 -29 -87 -9 3 -11 15 -7 36 4 17 4 57 1 90 -3 32 -2 58 1 58 4 0 11 9 14 21 9 26 29 19 33 -11z m-128 1 c0 -12 -20 -25 -27 -18 -7 7 6 27 18 27 5 0 9 -4 9 -9z m-50 -74 c-4 -28 -5 -57 -3 -63 2 -7 -1 -15 -6 -19 -6 -3 -8 -11 -5 -17 4 -7 2 -8 -5 -4 -6 4 -9 11 -6 16 5 8 -42 25 -58 21 -5 -1 -6 3 -3 8 4 5 -4 13 -16 17 -21 6 -19 10 37 60 33 29 62 49 65 43 4 -5 3 -33 0 -62z m115 -67 c0 -16 -3 -30 -7 -30 -10 0 -10 44 -1 53 3 4 7 7 7 7 1 0 1 -13 1 -30z m-84 -91 c-3 -4 -23 -9 -43 -12 -41 -6 -58 6 -55 41 1 21 27 32 27 12 0 -5 -4 -10 -10 -10 -5 0 -10 -7 -10 -15 0 -8 6 -15 14 -15 29 0 46 13 46 34 0 37 14 39 26 4 6 -18 9 -36 5 -39z m4 -29 c16 -6 17 -9 5 -13 -42 -15 -78 -15 -84 -2 -8 23 39 32 79 15z"/> <path d="M2301 2592 c11 -18 44 -35 87 -45 32 -7 28 -2 -28 32 -58 36 -75 39 -59 13z"/> <path d="M3150 2582 c0 -18 18 -42 30 -42 4 0 5 14 2 30 -5 32 -32 42 -32 12z"/> <path d="M3085 2580 c-3 -5 1 -10 9 -10 8 0 18 5 21 10 3 6 -1 10 -9 10 -8 0 -18 -4 -21 -10z"/> <path d="M1766 2564 c-9 -23 -8 -24 24 -24 32 0 37 9 18 28 -17 17 -35 15 -42 -4z"/> <path d="M2655 2500 c-9 -15 14 -40 36 -40 29 0 31 16 4 34 -29 19 -32 19 -40 6z"/> <path d="M1756 2464 c-11 -8 -37 -14 -57 -14 -21 0 -41 -4 -44 -10 -4 -6 12 -10 42 -10 47 0 48 -1 160 -112 62 -62 115 -109 118 -106 3 3 1 18 -5 34 -7 16 -7 30 -2 32 5 1 5 19 -2 43 -8 30 -7 45 3 60 15 24 16 22 -32 36 -33 10 -38 9 -47 -7 -13 -24 -13 -26 4 -42 20 -20 32 -80 14 -73 -20 9 -67 93 -70 125 -1 19 -8 30 -17 30 -8 0 -22 6 -30 14 -14 13 -19 13 -35 0z"/> <path d="M2825 2450 c-3 -5 3 -10 15 -10 12 0 18 5 15 10 -3 6 -10 10 -15 10 -5 0 -12 -4 -15 -10z"/> <path d="M2508 2443 c12 -2 30 -2 40 0 9 3 -1 5 -23 4 -22 0 -30 -2 -17 -4z"/> <path d="M2070 2431 c0 -6 -11 -11 -24 -11 -14 0 -27 -3 -29 -7 -3 -5 -8 -72 -12 -150 -6 -104 -4 -143 4 -143 7 0 11 21 11 56 0 34 4 53 10 49 12 -7 12 -4 1 53 -8 39 -7 42 8 28 27 -24 46 -4 47 51 0 26 2 54 5 62 2 7 -2 16 -8 18 -7 3 -13 0 -13 -6z"/> <path d="M2405 2408 c4 -13 10 -78 12 -145 3 -68 8 -123 12 -123 20 0 31 31 32 90 1 36 4 56 6 45 3 -11 10 -26 17 -34 9 -12 8 -13 -3 -6 -10 5 -12 4 -7 -4 13 -21 16 -71 4 -71 -9 0 -9 -3 0 -12 6 -6 15 -9 19 -5 10 11 3 111 -8 115 -6 3 -6 8 0 16 11 13 4 56 -9 56 -5 0 -10 -8 -13 -17 -2 -10 -4 -3 -4 15 0 17 3 32 7 32 5 0 7 11 6 25 0 15 -6 23 -13 21 -6 -3 -17 2 -23 10 -20 23 -44 18 -35 -8z"/> <path d="M2202 2412 c-66 -3 -74 -5 -84 -27 -14 -32 -5 -41 27 -27 14 7 35 12 47 12 28 0 20 -17 -49 -99 -48 -57 -61 -67 -73 -58 -13 10 -13 10 -2 -5 11 -14 10 -20 -8 -38 -17 -17 -50 -87 -50 -107 0 -6 231 6 242 13 25 16 -6 -42 -46 -85 l-31 -33 30 4 c17 3 38 9 48 13 12 5 17 3 17 -9 0 -9 7 -16 16 -16 12 0 14 4 7 13 -11 13 -15 72 -7 100 8 24 24 21 25 -5 0 -13 3 -17 6 -10 2 6 12 12 21 12 34 0 44 15 31 43 -11 25 -16 27 -79 27 -39 0 -72 5 -79 13 -9 8 -12 8 -7 0 4 -8 -15 -12 -70 -15 -42 -2 -78 0 -80 4 -2 3 3 14 12 23 15 14 18 14 33 0 21 -18 35 -20 25 -2 -6 10 -4 10 7 0 7 -7 20 -13 29 -13 9 0 4 8 -14 19 -16 11 -35 17 -42 14 -18 -7 -18 11 -1 25 8 7 18 7 27 2 21 -13 32 -12 27 3 -2 6 5 18 17 25 20 12 20 13 -4 6 -14 -4 -28 -12 -32 -18 -4 -6 -10 -7 -14 -3 -9 9 25 46 39 43 7 -2 8 -1 4 2 -8 4 72 105 106 133 26 21 16 25 -71 21z"/> <path d="M2705 2409 c-4 -6 3 -21 15 -34 17 -18 23 -43 32 -126 5 -57 11 -106 14 -108 2 -2 16 8 32 21 28 24 29 25 10 37 -21 13 -20 48 1 43 7 -1 10 2 7 7 -4 5 -2 12 4 16 6 4 7 11 3 18 -4 7 -9 4 -13 -8 -7 -19 -7 -18 -19 3 -10 18 -9 22 4 22 8 0 15 7 15 16 0 14 -2 15 -17 3 -15 -13 -16 -11 -9 14 4 16 2 27 -4 27 -15 0 -12 30 3 30 18 1 -35 29 -55 30 -9 0 -20 -5 -23 -11z"/> <path d="M2520 2373 c5 -20 8 -39 8 -42 -2 -19 3 -31 11 -27 4 3 6 17 3 31 -4 23 -1 25 32 25 25 0 39 -5 43 -17 4 -9 1 -19 -5 -21 -7 -2 -12 -8 -12 -14 0 -6 11 -3 24 5 17 11 26 13 34 5 8 -8 13 -7 18 5 4 11 -4 30 -20 52 -25 33 -30 35 -85 35 l-59 0 8 -37z"/> <path d="M2838 2358 c2 -29 9 -60 14 -68 6 -10 7 -1 4 28 -6 39 -5 42 17 42 27 0 72 -43 62 -59 -3 -6 -14 -11 -23 -12 -9 0 -12 -3 -5 -5 6 -3 25 2 42 11 24 12 31 22 31 44 0 24 -7 33 -43 50 -24 12 -57 21 -74 21 l-30 0 5 -52z"/> <path d="M3070 2389 c-9 -15 -5 -21 19 -34 35 -17 36 -21 52 -142 11 -89 16 -102 33 -85 4 4 13 7 19 7 5 0 11 10 12 23 1 13 -4 22 -13 22 -11 0 -12 3 -4 13 9 10 7 20 -5 37 -11 15 -18 48 -19 88 -2 35 -5 66 -8 69 -2 3 -21 8 -40 13 -30 7 -38 5 -46 -11z"/> <path d="M3427 2392 c-9 -10 -17 -27 -17 -37 0 -20 -33 -138 -57 -203 -9 -23 -14 -45 -11 -47 8 -9 48 54 50 80 1 14 5 25 8 25 3 0 6 8 7 18 0 9 10 50 22 91 24 82 24 102 -2 73z"/> <path d="M3513 2398 c3 -10 38 -59 77 -111 50 -67 76 -93 90 -92 34 2 33 13 -2 25 -30 11 -98 86 -98 108 0 5 -16 27 -36 48 -20 22 -34 31 -31 22z"/> <path d="M2344 2373 c-48 -45 -134 -148 -134 -162 0 -7 -5 -9 -12 -5 -8 5 -9 2 -5 -9 4 -10 0 -20 -10 -26 -12 -6 1 -9 43 -9 38 0 52 3 39 8 -11 4 -26 5 -34 2 -19 -7 -7 10 88 120 40 48 73 90 73 94 -1 18 -20 13 -48 -13z"/> <path d="M3220 2370 c0 -25 29 -219 36 -242 3 -10 9 -18 14 -18 5 0 5 12 0 28 -19 62 -32 189 -21 210 16 30 14 42 -9 42 -13 0 -20 -7 -20 -20z"/> <path d="M3660 2362 c0 -4 9 -13 20 -20 22 -13 27 -3 8 16 -14 14 -28 16 -28 4z"/> <path d="M3035 2328 c-5 -13 -29 -32 -53 -44 l-43 -20 26 -14 c47 -25 93 19 83 80 -3 21 -3 21 -13 -2z"/> <path d="M3461 2307 c-6 -25 -13 -52 -17 -61 -3 -9 -1 -16 4 -16 6 0 12 10 14 22 5 32 21 32 41 -1 11 -19 27 -30 47 -33 16 -3 30 -3 30 -1 0 10 -60 90 -83 111 l-24 23 -12 -44z"/> <path d="M3262 2308 c5 -15 28 -23 28 -10 0 5 -7 13 -16 16 -10 4 -14 1 -12 -6z"/> <path d="M3630 2289 c0 -5 9 -9 20 -9 11 0 20 4 20 8 0 4 -9 8 -20 9 -11 1 -20 -2 -20 -8z"/> <path d="M2526 2233 c8 -66 11 -73 31 -72 17 1 17 2 1 6 -28 7 -19 51 11 58 26 7 56 -19 44 -37 -3 -6 4 -5 15 1 31 17 34 26 15 60 -17 28 -22 31 -70 31 l-53 0 6 -47z"/> <path d="M2844 2253 c4 -9 10 -37 13 -60 3 -24 10 -46 15 -49 5 -3 6 6 2 21 -9 37 2 31 75 -37 64 -60 102 -75 165 -65 19 3 38 2 42 -3 8 -8 64 -13 239 -22 55 -3 60 -1 63 19 2 16 -3 23 -26 28 -29 6 -213 18 -266 16 -16 0 -60 9 -96 20 -55 16 -76 30 -121 75 -34 35 -47 53 -34 49 11 -3 7 1 -10 9 -42 21 -69 21 -61 -1z"/> <path d="M4244 2259 c-3 -5 6 -9 20 -9 31 0 34 6 6 13 -11 3 -23 1 -26 -4z"/> <path d="M4030 2250 c0 -5 7 -10 15 -10 8 0 15 5 15 10 0 6 -7 10 -15 10 -8 0 -15 -4 -15 -10z"/> <path d="M3737 2243 c-10 -9 -9 -23 2 -23 5 0 11 7 15 15 5 15 -5 20 -17 8z"/> <path d="M2363 2232 c7 -10 -28 -46 -53 -55 -10 -4 -8 -6 6 -6 12 -1 25 -8 28 -17 3 -8 10 -12 16 -9 15 9 12 23 -6 27 -12 2 -10 8 12 28 l27 25 -7 -35 c-4 -25 -3 -31 4 -20 16 24 11 49 -11 61 -12 6 -19 7 -16 1z"/> <path d="M2940 2232 c0 -12 81 -92 94 -92 5 0 -12 23 -39 50 -52 52 -55 55 -55 42z"/> <path d="M2673 2194 c-17 -27 -18 -32 -5 -26 15 5 15 3 4 -11 -8 -9 -10 -22 -6 -28 4 -8 3 -9 -5 -5 -6 4 -68 8 -136 9 l-125 2 0 -27 c0 -16 3 -28 8 -29 4 0 59 -1 122 -2 63 -1 121 -6 128 -10 19 -12 52 2 52 23 0 10 -6 20 -14 23 -17 7 -16 51 2 84 20 36 -1 33 -25 -3z"/> <path d="M4322 2219 c2 -7 10 -15 17 -17 8 -3 12 1 9 9 -2 7 -10 15 -17 17 -8 3 -12 -1 -9 -9z"/> <path d="M2270 2200 c-9 -16 -8 -20 5 -20 8 0 15 9 15 20 0 11 -2 20 -5 20 -2 0 -9 -9 -15 -20z"/> <path d="M3040 2187 c19 -21 43 -43 53 -48 16 -9 17 -8 5 10 -7 11 -14 18 -17 15 -3 -2 -21 10 -40 28 l-36 33 35 -38z"/> <path d="M3426 2202 c-12 -21 -18 -92 -7 -92 6 0 10 3 10 8 -5 27 4 32 55 32 30 0 66 -4 80 -9 26 -11 62 -72 53 -94 -9 -25 18 -42 73 -46 116 -9 125 -8 128 16 3 19 -3 22 -45 28 -26 4 -55 9 -63 12 -8 3 -30 5 -49 4 -22 -2 -31 1 -27 8 4 6 16 11 27 11 24 0 24 12 -1 35 -11 10 -20 23 -20 30 0 24 -36 43 -95 49 -33 4 -72 9 -87 12 -14 3 -29 1 -32 -4z"/> <path d="M3670 2183 c0 -5 23 -33 51 -63 28 -30 42 -41 31 -25 -11 17 -29 39 -41 49 -12 11 -21 25 -21 33 0 7 -4 13 -10 13 -5 0 -10 -3 -10 -7z"/> <path d="M379 2161 c28 -21 16 -34 -25 -27 -28 5 -87 -14 -98 -32 -4 -6 15 -4 41 5 31 11 48 13 50 6 2 -6 13 -9 24 -6 11 3 19 2 18 -3 -4 -21 2 -35 11 -29 6 3 10 2 10 -4 0 -12 37 -6 56 10 8 6 14 18 14 26 0 12 -3 12 -16 -2 -13 -12 -19 -13 -31 -4 -8 7 -13 8 -11 3 3 -9 -4 -14 -22 -14 -26 0 -1 26 35 36 22 6 58 19 80 29 l40 17 -19 -21 c-23 -25 -12 -26 33 -2 19 10 30 20 25 23 -12 8 -119 2 -133 -6 -6 -4 -11 -2 -11 4 0 8 -6 8 -20 0 -14 -7 -20 -7 -20 0 0 5 -12 10 -27 10 l-28 0 24 -19z"/> <path d="M2710 2148 c0 -36 4 -35 14 5 4 16 2 27 -4 27 -5 0 -10 -14 -10 -32z"/> <path d="M4162 2131 c-13 -9 -20 -20 -17 -23 4 -4 16 3 27 14 25 25 19 32 -10 9z"/> <path d="M4377 2130 c8 -30 18 -32 19 -4 1 14 -4 24 -11 24 -8 0 -11 -8 -8 -20z"/> <path d="M2777 2133 c-46 -4 -48 -6 -45 -31 3 -27 3 -27 88 -28 82 -1 99 4 100 32 0 6 -15 14 -32 17 -18 3 -40 7 -48 9 -8 2 -37 3 -63 1z"/> <path d="M70 2092 c0 -4 4 -12 9 -17 14 -16 22 -63 11 -70 -5 -3 -10 -2 -10 4 0 5 -15 -5 -33 -22 -38 -37 -38 -51 1 -34 70 31 93 103 42 135 -11 7 -20 9 -20 4z"/> <path d="M28 2047 c-30 -31 -39 -70 -13 -61 20 8 59 74 49 83 -5 4 -21 -6 -36 -22z"/> <path d="M2385 2040 c-7 -11 11 -50 23 -50 4 0 18 9 32 20 l25 20 -38 0 c-23 0 -36 4 -32 10 3 6 4 10 1 10 -3 0 -8 -4 -11 -10z"/> <path d="M1862 2029 c2 -6 8 -10 13 -10 5 0 11 4 13 10 2 6 -4 11 -13 11 -9 0 -15 -5 -13 -11z"/> <path d="M2945 2033 c-11 -3 -24 -10 -30 -15 -12 -13 35 0 50 13 5 5 7 8 5 8 -3 -1 -14 -3 -25 -6z"/> <path d="M223 2023 c-12 -2 -27 -10 -33 -18 -9 -11 -5 -12 24 -3 20 6 36 15 36 20 0 4 -1 7 -2 7 -2 -1 -13 -4 -25 -6z"/> <path d="M845 2014 c16 -38 16 -71 2 -106 -12 -29 -12 -35 -1 -35 8 0 14 5 14 11 0 6 6 22 13 36 16 30 1 100 -22 108 -11 4 -12 0 -6 -14z"/> <path d="M1792 2012 c7 -9 13 -18 14 -20 1 -2 4 4 7 12 3 8 -2 16 -14 19 -17 5 -18 3 -7 -11z"/> <path d="M2333 2015 c0 -8 6 -16 14 -19 7 -3 13 -2 13 3 0 5 -6 14 -13 20 -10 8 -14 7 -14 -4z"/> <path d="M2875 2019 c-10 -15 3 -25 16 -12 7 7 7 13 1 17 -6 3 -14 1 -17 -5z"/> <path d="M785 2001 c19 -60 10 -106 -30 -165 -34 -50 -33 -82 5 -105 18 -10 41 -16 56 -13 31 6 23 16 -14 17 -18 0 -28 6 -30 18 -3 16 1 18 41 12 25 -4 55 -4 67 0 21 7 21 7 -5 21 -34 17 -36 17 -29 -1 4 -10 0 -15 -15 -15 -18 0 -20 4 -15 28 6 25 5 26 -8 8 -24 -30 -30 -3 -12 46 10 24 23 50 31 59 15 18 17 67 4 88 -5 8 -19 16 -31 18 -17 2 -20 -1 -15 -16z"/> <path d="M1421 2012 c-7 -2 0 -12 18 -23 47 -29 70 -114 31 -114 -10 0 -17 14 -20 45 -5 40 -9 47 -46 66 -43 23 -56 21 -67 -8 -5 -15 -4 -16 13 -6 16 10 23 9 38 -8 11 -11 22 -26 25 -34 3 -10 6 -11 6 -2 1 6 5 12 11 12 6 0 5 -11 -2 -26 -10 -22 -10 -28 5 -39 16 -11 16 -15 3 -28 -9 -8 -27 -13 -43 -11 -23 4 -24 3 -8 -4 31 -14 172 16 178 38 2 9 -4 22 -14 29 -11 6 -19 17 -19 25 0 7 -9 21 -20 31 -27 24 -25 38 3 24 31 -16 87 -71 87 -85 0 -7 -7 -20 -16 -28 -14 -15 -14 -16 4 -16 11 0 25 -7 32 -15 14 -17 5 -23 -49 -27 -41 -4 -56 -28 -17 -28 13 0 27 4 30 9 12 19 86 24 112 7 24 -16 44 -14 44 4 0 5 -10 12 -22 15 -13 4 -35 18 -49 32 -14 13 -30 23 -35 22 -22 -4 -23 3 -9 38 9 20 14 42 11 49 -6 16 -104 65 -108 54 -2 -4 -24 -5 -49 -1 -25 4 -51 5 -58 3z"/> <path d="M2150 2010 c0 -5 7 -10 15 -10 8 0 15 5 15 10 0 6 -7 10 -15 10 -8 0 -15 -4 -15 -10z"/> <path d="M2489 1992 c-8 -13 -20 -17 -38 -14 -33 6 -18 -10 27 -28 26 -10 36 -10 45 -1 7 7 8 12 2 11 -31 -6 -38 0 -21 19 11 12 13 21 7 25 -6 4 -16 -2 -22 -12z"/> <path d="M2553 1995 c-19 -21 -16 -25 16 -19 20 4 30 2 34 -10 8 -21 104 -22 154 -1 l37 16 -23 16 c-22 15 -24 15 -33 -1 -5 -9 -14 -13 -20 -10 -7 4 -8 2 -4 -4 9 -15 -9 -15 -35 -2 -13 7 -19 7 -19 0 0 -5 -11 -10 -25 -10 -18 0 -23 4 -19 15 4 9 0 15 -9 15 -9 0 -21 2 -29 5 -7 2 -19 -2 -25 -10z"/> <path d="M3290 2000 c0 -5 10 -10 23 -10 18 0 19 2 7 10 -19 13 -30 13 -30 0z"/> <path d="M755 1990 c3 -6 -1 -7 -9 -4 -20 8 -20 -5 -1 -30 8 -11 15 -31 15 -45 1 -23 2 -24 11 -8 12 21 2 97 -12 97 -6 0 -7 -4 -4 -10z"/> <path d="M1304 1992 c3 -6 -3 -16 -15 -23 -19 -10 -21 -9 -16 5 4 11 1 16 -9 16 -10 0 -14 -6 -11 -14 3 -8 -1 -17 -9 -20 -8 -3 -12 -2 -9 3 3 5 1 12 -4 15 -5 4 -8 -2 -7 -11 2 -12 -15 -25 -53 -45 -31 -15 -63 -28 -72 -28 -9 0 -19 -6 -22 -14 -5 -12 0 -12 31 1 20 8 43 20 50 25 6 6 12 7 12 2 0 -4 5 -3 12 4 7 7 20 12 30 12 10 0 18 5 18 10 0 6 7 10 16 10 8 0 12 -4 9 -10 -3 -5 -1 -10 4 -10 6 0 11 5 11 10 0 6 11 15 25 20 26 10 33 34 13 46 -7 4 -8 3 -4 -4z"/> <path d="M2930 1982 c0 -7 -4 -10 -10 -7 -5 3 -10 -1 -10 -9 0 -9 9 -16 20 -16 22 0 25 7 10 30 -7 11 -10 11 -10 2z"/> <path d="M3390 1982 c0 -7 -8 -12 -18 -12 -22 0 -34 -9 -26 -21 3 -5 18 -2 35 6 27 14 33 13 30 -7 0 -5 4 -8 9 -8 6 0 10 5 10 11 0 5 5 7 10 4 6 -3 10 -1 10 5 0 7 -6 10 -12 7 -7 -2 -21 2 -30 11 -12 10 -18 11 -18 4z"/> <path d="M1828 1968 c9 -9 15 -9 24 0 9 9 7 12 -12 12 -19 0 -21 -3 -12 -12z"/> <path d="M1904 1969 c-3 -5 14 -10 38 -11 24 0 63 -2 88 -3 25 -1 53 4 63 11 15 10 0 12 -82 12 -56 0 -103 -4 -107 -9z"/> <path d="M995 1961 c-3 -6 4 -15 15 -21 13 -7 19 -18 16 -26 -4 -11 0 -11 20 2 24 17 24 17 4 31 -11 8 -25 11 -32 7 -7 -4 -8 -3 -4 4 4 7 3 12 -3 12 -5 0 -12 -4 -16 -9z"/> <path d="M3587 1956 c-16 -12 -14 -13 15 -11 47 4 48 4 48 13 0 13 -44 12 -63 -2z"/> <path d="M4450 1930 c-7 -16 -17 -30 -22 -30 -5 0 -6 -4 -3 -10 3 -5 -6 -12 -20 -16 -14 -3 -25 -11 -25 -17 0 -5 -10 -2 -22 9 -13 10 -18 12 -12 4 6 -8 10 -25 9 -38 -1 -13 3 -26 8 -29 6 -3 7 -1 3 5 -4 7 -2 12 5 12 15 0 109 95 109 110 0 6 -6 8 -12 5 -7 -4 -4 1 6 9 16 13 17 16 4 16 -9 0 -21 -13 -28 -30z"/> <path d="M3132 1939 c10 -5 15 -16 12 -24 -4 -8 -1 -15 6 -15 6 0 9 4 5 9 -3 5 -1 12 5 16 18 11 11 20 -17 22 -22 1 -24 -1 -11 -8z"/> <path d="M1717 1933 c-4 -3 -7 -13 -7 -20 0 -11 10 -13 43 -8 24 4 68 2 98 -4 30 -6 75 -15 100 -20 25 -6 63 -20 85 -33 21 -13 56 -30 79 -38 32 -12 51 -31 92 -90 53 -77 66 -127 40 -149 -22 -18 -7 -72 30 -110 18 -19 36 -45 39 -57 3 -13 15 -26 25 -29 10 -4 19 -11 19 -16 0 -6 9 -5 22 2 l21 11 -20 17 c-11 9 -26 27 -33 39 -6 13 -14 21 -17 18 -10 -10 -32 15 -27 29 3 7 -2 25 -12 40 -15 23 -16 33 -6 76 16 66 15 79 -3 79 -8 0 -15 4 -15 8 0 4 -20 41 -44 82 l-45 74 -72 12 c-86 15 -114 34 -50 34 30 0 41 4 38 13 -2 7 -18 11 -37 9 -18 -1 -84 7 -146 18 -115 20 -185 25 -197 13z"/> <path d="M2765 1924 c-55 -7 -135 -13 -177 -13 -65 -1 -78 -4 -78 -17 0 -13 7 -15 36 -10 23 5 41 3 51 -6 13 -10 17 -10 20 0 5 14 29 16 38 3 3 -5 -12 -15 -32 -21 -21 -7 -54 -24 -73 -39 -19 -15 -46 -33 -58 -40 -66 -35 -143 -132 -141 -178 0 -14 2 -15 6 -3 14 36 96 140 116 146 11 4 27 13 35 20 7 8 20 14 28 14 8 0 14 4 14 9 0 10 55 34 79 34 9 0 18 3 21 6 10 13 87 42 158 61 41 10 76 21 79 24 6 6 -6 26 -15 25 -4 -1 -52 -7 -107 -15z"/> <path d="M730 1917 c0 -10 -4 -16 -8 -13 -5 3 -7 -9 -6 -27 2 -18 1 -24 -2 -14 -3 9 -10 15 -15 11 -5 -3 -6 -10 -3 -16 4 -6 1 -14 -5 -18 -7 -4 -14 -22 -16 -41 -1 -19 -6 -55 -10 -82 -6 -41 -5 -46 9 -41 18 7 22 24 6 24 -5 0 -10 5 -10 10 0 6 10 10 22 10 17 0 19 3 10 12 -19 19 -14 47 18 100 32 52 35 65 20 88 -8 13 -10 12 -10 -3z"/> <path d="M961 1908 c-5 -13 -5 -27 0 -32 14 -15 10 -29 -6 -22 -21 8 -19 -1 4 -13 17 -9 19 -7 17 19 -1 20 3 30 12 30 16 0 12 32 -6 38 -6 2 -16 -7 -21 -20z"/> <path d="M2196 1916 c-56 -10 -79 -27 -57 -40 5 -3 32 -1 60 6 28 6 53 9 56 6 3 -3 0 -17 -6 -31 -10 -23 -9 -32 15 -67 15 -22 31 -53 37 -68 10 -26 11 -25 44 46 36 77 37 90 5 110 -19 11 -20 10 -18 -26 1 -41 -17 -86 -33 -77 -5 4 -9 31 -9 61 0 41 4 56 16 61 19 7 124 -15 142 -30 15 -12 33 8 26 28 -6 16 -145 37 -160 24 -7 -5 -21 -6 -35 -1 -14 5 -49 4 -83 -2z"/> <path d="M3645 1923 c11 -3 24 -9 30 -14 5 -5 13 -9 19 -9 5 0 1 7 -10 15 -10 8 -28 14 -39 14 -20 -1 -20 -1 0 -6z"/> <path d="M1046 1903 c-11 -11 -6 -23 9 -23 8 0 15 4 15 9 0 13 -16 22 -24 14z"/> <path d="M3882 1898 c2 -6 11 -16 20 -21 19 -13 71 0 62 14 -4 7 -9 7 -13 2 -7 -11 -52 -12 -45 -2 2 4 -3 10 -12 13 -10 4 -14 1 -12 -6z"/> <path d="M1005 1880 c-3 -6 1 -18 10 -27 15 -14 18 -14 32 0 14 14 14 15 -3 14 -11 -1 -18 4 -16 11 2 14 -14 16 -23 2z"/> <path d="M4476 1855 c-14 -22 -15 -25 -1 -25 8 0 15 -4 15 -10 0 -5 -11 -10 -25 -10 -14 0 -25 -4 -25 -10 0 -5 11 -10 24 -10 27 0 49 41 27 48 -9 3 -9 7 0 18 7 8 10 17 7 20 -3 2 -13 -7 -22 -21z"/> <path d="M4175 1860 c-4 -7 -1 -16 6 -21 17 -10 26 8 11 23 -6 6 -12 6 -17 -2z"/> <path d="M2513 1848 c-31 -8 -93 -61 -93 -79 0 -5 28 10 63 33 34 24 64 44 66 45 13 8 -8 9 -36 1z"/> <path d="M3315 1840 c3 -5 16 -10 28 -9 21 0 21 1 2 9 -28 12 -37 12 -30 0z"/> <path d="M4238 1839 c-20 -11 -24 -29 -7 -29 5 0 8 4 5 9 -3 5 1 12 10 15 23 9 23 8 19 -14 -3 -13 0 -18 7 -14 8 5 9 1 4 -12 -6 -15 -5 -17 5 -6 19 18 33 14 18 -5 -11 -14 -8 -13 11 2 43 34 49 49 26 58 -10 4 -13 1 -10 -7 3 -8 0 -17 -7 -22 -8 -5 -10 -3 -4 7 8 12 6 12 -8 0 -18 -14 -32 -9 -32 12 0 15 -17 18 -37 6z"/> <path d="M1250 1833 c-8 -3 -23 -14 -33 -24 -27 -28 2 -24 38 6 29 23 27 30 -5 18z"/> <path d="M3550 1829 c0 -5 3 -8 8 -8 24 4 34 -3 29 -21 -6 -23 8 -27 16 -5 4 8 1 17 -5 21 -7 4 -7 9 2 14 6 4 -2 7 -19 8 -17 0 -31 -4 -31 -9z"/> <path d="M1300 1811 c0 -6 6 -11 13 -11 6 0 23 -3 37 -6 17 -5 22 -4 15 4 -15 16 -65 26 -65 13z"/> <path d="M3070 1811 c0 -10 30 -24 37 -17 3 2 -5 9 -16 16 -12 6 -21 7 -21 1z"/> <path d="M3926 1789 c-15 -15 -16 -19 -5 -19 16 0 39 19 39 32 0 13 -14 8 -34 -13z"/> <path d="M1440 1790 c-13 -9 -12 -12 4 -25 28 -21 34 -19 28 10 -5 27 -10 30 -32 15z"/> <path d="M4414 1766 c10 -16 12 -27 6 -31 -14 -9 -3 -25 17 -25 10 0 13 5 8 18 -7 17 -13 39 -14 55 -1 4 -8 7 -17 7 -15 0 -15 -2 0 -24z"/> <path d="M4172 1768 c7 -19 53 -21 68 -4 10 13 10 16 -2 16 -8 0 -19 -5 -25 -11 -8 -8 -13 -8 -17 0 -10 15 -29 14 -24 -1z"/> <path d="M1288 1765 c-3 -3 -23 -6 -46 -7 -74 -3 -70 -18 5 -18 60 0 71 -3 67 -15 -5 -11 2 -15 27 -15 81 0 95 -19 58 -79 -11 -18 -18 -43 -16 -55 3 -20 4 -19 17 6 16 33 33 24 55 -29 8 -18 19 -33 24 -33 13 0 15 27 2 34 -4 3 -14 34 -20 68 -21 106 -36 122 -116 132 -19 3 -38 7 -43 10 -5 3 -11 3 -14 1z"/> <path d="M1562 1755 c-11 -9 -25 -15 -29 -14 -21 4 -33 -2 -33 -16 0 -11 12 -15 51 -15 44 0 55 -4 79 -31 16 -16 32 -39 35 -50 10 -32 25 -21 18 14 -3 17 -14 38 -24 45 -20 14 -15 42 7 42 8 0 14 7 14 16 0 13 -7 15 -36 10 -20 -4 -41 -3 -48 3 -9 7 -19 6 -34 -4z"/> <path d="M3955 1751 c-6 -11 33 -26 43 -16 4 3 0 10 -8 15 -19 12 -27 12 -35 1z"/> <path d="M4354 1730 c1 -16 6 -32 13 -34 17 -7 22 4 16 37 -7 37 -30 35 -29 -3z"/> <path d="M1123 1743 c9 -2 25 -2 35 0 9 3 1 5 -18 5 -19 0 -27 -2 -17 -5z"/> <path d="M4120 1729 c-34 -18 -34 -19 -8 -19 37 0 58 10 58 26 0 17 -6 16 -50 -7z"/> <path d="M4300 1726 c0 -8 4 -17 9 -20 10 -7 23 19 14 28 -11 11 -23 6 -23 -8z"/> <path d="M3742 1706 c-8 -18 -8 -25 1 -29 23 -8 37 4 27 22 -5 10 -6 21 -3 25 3 3 2 6 -4 6 -5 0 -15 -11 -21 -24z"/> <path d="M2636 1705 c4 -8 10 -15 15 -15 5 0 9 7 9 15 0 8 -7 15 -15 15 -9 0 -12 -6 -9 -15z"/> <path d="M3560 1701 c0 -10 30 -24 37 -17 3 3 2 9 -2 15 -8 13 -35 15 -35 2z"/> <path d="M4236 1695 c4 -8 12 -15 20 -15 8 0 14 7 14 15 0 8 -9 15 -20 15 -13 0 -18 -5 -14 -15z"/> <path d="M11 1686 c-15 -18 -10 -98 6 -103 9 -3 9 3 0 26 -9 26 -8 36 6 61 18 30 9 42 -12 16z"/> <path d="M1494 1659 c23 -28 36 -54 38 -78 3 -40 21 -49 26 -12 3 20 8 22 32 17 34 -6 51 12 25 26 -9 6 -24 19 -34 30 -15 18 -93 58 -113 58 -5 0 6 -19 26 -41z"/> <path d="M4457 1685 c-7 -18 -38 -20 -55 -3 -9 9 -12 7 -12 -10 0 -31 -21 -36 -65 -18 -43 18 -55 20 -55 7 0 -5 8 -8 18 -7 12 1 17 -7 17 -26 1 -35 9 -42 32 -29 10 5 44 19 77 31 46 16 61 18 73 8 12 -10 14 -7 11 23 -3 36 -31 53 -41 24z"/> <path d="M4030 1664 c-15 -38 -13 -40 32 -40 44 1 62 20 29 31 -12 3 -21 10 -21 15 0 4 -7 11 -15 14 -11 4 -19 -3 -25 -20z"/> <path d="M4177 1684 c-9 -10 2 -24 19 -24 8 0 14 7 14 15 0 15 -21 21 -33 9z"/> <path d="M707 1666 c-8 -20 1 -26 38 -26 35 0 60 -22 70 -61 5 -19 2 -28 -9 -32 -16 -6 -19 -4 -54 40 -12 16 -21 20 -31 14 -11 -7 -10 -14 5 -42 11 -19 22 -35 26 -37 4 -2 5 -9 2 -17 -3 -7 2 -24 10 -37 9 -14 13 -28 9 -31 -3 -4 -1 -7 5 -7 16 0 15 7 -5 41 -16 27 -16 30 -1 45 21 21 53 5 62 -31 4 -14 11 -25 16 -25 11 0 3 48 -11 65 -4 6 -4 17 0 24 12 19 -4 70 -28 92 -11 10 -34 21 -52 24 -18 3 -36 8 -40 10 -4 3 -9 -1 -12 -9z"/> <path d="M936 1661 c-3 -5 14 -12 39 -15 49 -8 83 -40 65 -62 -8 -8 -3 -13 17 -17 50 -11 95 -45 91 -70 -4 -27 -38 -26 -75 3 -14 11 -35 20 -47 20 -20 -1 -19 -2 7 -25 26 -23 35 -45 19 -45 -13 0 -72 30 -104 52 -29 20 -48 23 -48 8 0 -5 6 -10 14 -10 8 0 23 -11 34 -24 14 -18 25 -23 41 -19 15 4 26 -1 35 -13 11 -15 17 -16 28 -6 8 6 17 9 21 6 3 -3 33 7 67 22 49 22 59 30 48 38 -8 6 -19 20 -25 30 -6 11 -28 29 -49 41 -20 11 -42 29 -48 40 -20 35 -51 54 -88 55 -20 0 -39 -4 -42 -9z"/> <path d="M1310 1629 c0 -42 8 -69 21 -69 4 0 3 14 -3 31 -9 26 -7 33 13 55 l23 24 -27 -2 c-24 -2 -27 -6 -27 -39z"/> <path d="M48 1648 c-2 -6 -2 -24 0 -41 6 -35 22 -17 22 26 0 27 -15 38 -22 15z"/> <path d="M3912 1628 c3 -31 5 -33 36 -30 23 2 38 -2 46 -14 16 -21 27 -6 19 24 -4 17 -13 22 -39 22 -22 0 -37 6 -40 15 -11 27 -25 16 -22 -17z"/> <path d="M641 1639 c-1 -17 34 -59 49 -59 18 0 10 19 -11 25 -11 4 -24 16 -29 28 -6 14 -9 17 -9 6z"/> <path d="M3766 1598 c6 -22 6 -22 -19 -5 -31 20 -97 23 -97 5 0 -7 19 -23 42 -35 38 -21 43 -22 70 -8 28 13 30 13 35 -5 6 -22 18 -26 28 -9 5 6 23 8 49 3 l41 -6 -19 21 c-11 11 -30 21 -42 21 -13 0 -29 9 -36 20 -7 11 -23 20 -36 20 -20 0 -22 -4 -16 -22z"/> <path d="M921 1604 c1 -18 60 -56 76 -50 15 6 15 9 -3 26 -21 20 -74 38 -73 24z"/> <path d="M4200 1579 c0 -17 -5 -20 -32 -18 -39 4 -138 -31 -138 -48 0 -20 18 -24 42 -9 42 27 146 39 211 25 32 -7 61 -18 64 -26 3 -7 17 -13 33 -13 45 0 90 -21 105 -49 l14 -26 1 36 c0 35 -1 35 -77 66 -43 17 -100 36 -128 43 -27 7 -57 19 -66 27 -22 18 -29 16 -29 -8z"/> <path d="M4455 1573 c-18 -10 -25 -18 -17 -21 22 -7 62 8 62 23 0 19 -7 18 -45 -2z"/> <path d="M648 1553 c18 -9 35 -26 38 -39 6 -25 24 -24 24 1 0 27 -33 55 -65 55 l-30 0 33 -17z"/> <path d="M596 1528 c6 -35 45 -78 70 -78 10 0 2 13 -20 34 -20 18 -36 43 -36 55 0 11 -4 21 -10 21 -5 0 -7 -14 -4 -32z"/> <path d="M3954 1535 c-17 -13 -17 -14 -2 -15 9 0 20 5 23 11 11 17 0 20 -21 4z"/> <path d="M3186 1529 c9 -15 110 -59 132 -58 14 1 13 2 -3 8 -11 3 -44 19 -74 34 -62 30 -65 31 -55 16z"/> <path d="M3095 1489 c13 -60 67 -149 91 -149 6 0 15 -7 18 -16 4 -9 9 -14 12 -11 4 3 12 1 19 -6 40 -39 67 -57 85 -57 11 0 20 -4 20 -9 0 -15 99 -25 265 -26 275 -3 518 -14 580 -26 65 -12 85 -19 157 -55 27 -13 54 -24 61 -24 7 0 20 -9 30 -20 17 -20 37 -27 37 -12 0 9 -116 87 -151 100 -13 6 -44 15 -68 22 -38 10 -42 14 -27 22 14 8 31 4 70 -15 28 -14 65 -29 81 -33 17 -4 36 -11 43 -17 6 -5 12 -6 12 -2 0 4 6 3 13 -2 6 -5 23 -6 37 -2 24 7 24 7 -6 8 -17 1 -39 10 -48 20 -10 11 -24 17 -32 14 -22 -8 -83 17 -89 37 -3 10 -22 26 -43 35 -20 10 -45 24 -55 33 -25 22 -32 7 -8 -17 25 -25 27 -39 6 -47 -25 -10 -58 3 -94 36 -31 28 -37 30 -58 19 -32 -17 -29 -30 8 -27 18 2 34 -2 36 -9 6 -16 -35 -27 -52 -13 -7 6 -25 8 -40 4 -18 -4 -31 -1 -43 10 -56 54 -79 64 -116 50 -27 -10 -18 -24 17 -24 41 0 62 -13 54 -34 -7 -18 -40 -14 -90 11 -24 12 -32 12 -58 -1 -27 -13 -30 -13 -39 3 -5 10 -7 21 -4 24 3 3 -13 3 -35 0 -36 -5 -41 -3 -52 21 -11 23 -18 26 -65 26 -29 0 -56 -4 -59 -10 -3 -5 2 -11 12 -11 46 -4 61 -7 100 -28 23 -11 51 -21 62 -21 11 0 23 -4 26 -10 4 -6 -14 -10 -47 -11 -29 0 -68 -2 -86 -5 -20 -2 -31 0 -27 6 3 5 -7 5 -25 -2 -23 -8 -47 -7 -93 3 -85 17 -123 34 -187 82 -30 23 -57 43 -59 44 -2 2 -1 6 2 10 7 6 139 -58 167 -82 31 -26 159 -48 145 -24 -4 5 -16 9 -28 9 -42 0 -99 21 -94 34 3 9 -9 20 -31 29 -61 26 -132 72 -200 127 l-64 53 7 -34z"/> <path d="M3589 1513 c-1 -5 -1 -12 0 -16 1 -5 -3 -6 -9 -2 -6 4 -29 4 -51 0 -30 -5 -39 -11 -37 -23 4 -19 96 -36 113 -21 12 11 56 11 73 0 7 -4 24 -6 38 -3 32 6 29 38 -4 34 -12 -2 -34 6 -48 17 -26 20 -73 29 -75 14z"/> <path d="M1279 1499 c-15 -3 1 -8 46 -11 39 -4 86 -11 105 -17 58 -18 122 -86 133 -142 2 -13 5 -1 6 27 1 55 -8 69 -75 121 -34 25 -46 28 -114 28 -43 0 -88 -2 -101 -6z"/> <path d="M2370 1489 c0 -5 4 -7 10 -4 11 7 54 -32 62 -56 8 -21 21 -4 14 18 -3 11 -22 27 -41 36 -42 20 -45 20 -45 6z"/> <path d="M4230 1480 c-12 -8 -11 -10 8 -10 12 0 22 5 22 10 0 13 -11 13 -30 0z"/> <path d="M874 1444 c3 -9 6 -18 6 -20 0 -2 4 -4 9 -4 5 0 7 9 4 20 -3 11 -10 20 -15 20 -6 0 -7 -7 -4 -16z"/> <path d="M3874 1446 c-17 -8 -44 -28 -60 -45 -27 -29 -31 -30 -61 -19 -24 9 -36 9 -44 1 -8 -8 -5 -13 10 -18 12 -3 21 -13 21 -21 0 -24 32 -16 66 17 18 18 54 37 81 45 26 7 58 16 70 20 34 10 43 -23 12 -47 -13 -10 -20 -21 -16 -25 4 -4 21 7 38 24 36 37 73 50 93 33 8 -7 29 -9 53 -5 29 4 42 2 52 -10 7 -9 28 -16 45 -16 18 0 36 -4 42 -9 5 -6 24 -6 50 1 47 13 94 4 94 -17 0 -8 -6 -16 -12 -16 -7 -1 3 -5 22 -9 19 -4 43 -11 53 -15 13 -6 17 -2 17 17 0 34 -56 63 -150 77 -41 7 -109 18 -150 26 -111 21 -288 27 -326 11z"/> <path d="M2190 1430 c-8 -14 -13 -31 -11 -38 1 -8 -14 -29 -33 -48 -20 -19 -36 -42 -36 -51 0 -9 -5 -31 -12 -49 -10 -28 -9 -34 11 -55 12 -13 19 -29 17 -36 -3 -7 1 -18 8 -26 19 -19 25 -75 9 -81 -10 -4 -9 -10 7 -26 11 -11 20 -26 20 -33 0 -14 39 -51 47 -44 2 3 0 13 -5 24 -43 82 -55 123 -44 148 16 35 16 37 -18 80 -16 21 -30 48 -30 60 0 29 52 78 85 78 28 0 65 -28 65 -50 0 -7 7 -13 15 -13 9 0 15 9 15 24 0 13 -7 26 -15 30 -8 3 -15 11 -15 19 0 7 -13 26 -29 42 -17 15 -31 37 -33 49 -3 20 -4 20 -18 -4z"/> <path d="M1329 1416 c-2 -2 -19 -6 -37 -8 -42 -5 -40 -20 5 -36 46 -16 70 -37 96 -87 l22 -40 3 28 c2 16 -1 34 -6 40 -5 7 -12 20 -15 29 -5 14 -2 15 21 7 15 -5 36 -21 46 -34 18 -24 46 -34 46 -17 0 24 -74 92 -117 106 -50 17 -57 18 -64 12z"/> <path d="M2466 1351 c-10 -16 53 -64 96 -71 24 -5 44 -7 46 -5 2 2 -22 14 -52 28 -31 14 -56 30 -56 35 0 13 -28 23 -34 13z"/> <path d="M4140 1350 c-8 -5 -11 -12 -7 -16 4 -4 15 0 24 9 18 18 8 23 -17 7z"/> <path d="M4355 1316 c-18 -13 -18 -14 3 -25 13 -7 22 -8 22 -2 0 5 3 16 6 25 8 20 -6 21 -31 2z"/> <path d="M1250 1312 c0 -13 75 -92 88 -92 21 0 13 15 -28 58 -38 40 -60 52 -60 34z"/> <path d="M3980 1310 c0 -5 9 -10 20 -10 11 0 20 5 20 10 0 6 -9 10 -20 10 -11 0 -20 -4 -20 -10z"/> <path d="M2385 1300 c-13 -21 -13 -91 0 -117 l12 -23 17 25 c9 14 22 25 29 25 16 -1 67 -46 67 -60 0 -5 7 -10 15 -10 19 0 66 40 59 51 -3 5 -27 11 -55 15 -49 7 -58 13 -112 78 -18 22 -26 26 -32 16z"/> <path d="M4367 1263 c-13 -12 -7 -23 13 -23 11 0 20 7 20 15 0 15 -21 21 -33 8z"/> <path d="M2248 1253 c-10 -2 -18 -8 -18 -12 0 -11 31 -51 39 -51 11 0 21 38 14 56 -5 14 -6 15 -35 7z"/> <path d="M2650 1170 c0 -11 3 -21 8 -21 29 -5 64 -4 68 3 3 4 -4 8 -15 8 -11 0 -26 7 -35 15 -20 20 -26 19 -26 -5z"/> <path d="M1995 1160 c-3 -5 2 -10 12 -10 10 0 29 -3 43 -6 18 -4 16 -1 -9 10 -39 19 -38 19 -46 6z"/> <path d="M2790 1120 c19 -13 30 -13 30 0 0 6 -10 10 -22 10 -19 0 -20 -2 -8 -10z"/> <path d="M2270 1108 c0 -11 38 -65 72 -102 10 -11 17 -26 16 -34 -2 -8 3 -17 10 -19 7 -3 13 5 13 19 1 13 3 37 4 53 2 39 -9 53 -39 48 -18 -4 -29 2 -41 21 -18 27 -35 34 -35 14z"/> <path d="M2835 1100 c3 -5 13 -10 21 -10 8 0 14 -5 14 -12 0 -6 3 -8 7 -4 5 4 -1 14 -11 22 -23 16 -40 19 -31 4z"/> <path d="M4466 1061 c-3 -5 1 -11 8 -14 8 -3 16 -18 19 -34 3 -20 4 -16 6 15 1 31 -3 42 -13 42 -8 0 -17 -4 -20 -9z"/> <path d="M1955 1050 c-7 -12 2 -12 30 0 19 8 19 9 -2 9 -12 1 -25 -3 -28 -9z"/> <path d="M2542 1053 c-23 -9 -1 -23 38 -23 26 0 42 -6 50 -17 10 -17 10 -17 20 0 15 23 47 22 62 -3 15 -24 28 -26 28 -5 0 43 87 -27 128 -103 31 -59 37 -110 12 -104 -6 1 -9 -2 -6 -7 4 -5 2 -12 -3 -16 -11 -6 -34 29 -25 38 3 3 -20 6 -53 6 l-58 -1 24 -19 c13 -10 32 -19 42 -19 10 0 30 -5 44 -12 19 -9 31 -8 49 2 32 16 38 53 18 113 -13 40 -27 59 -71 93 -31 24 -60 44 -65 44 -5 0 -14 7 -21 16 -9 13 -33 17 -106 19 -52 2 -100 1 -107 -2z"/> <path d="M1787 1010 c3 -11 9 -17 14 -14 14 8 10 34 -5 34 -9 0 -12 -7 -9 -20z"/> <path d="M3795 1012 c6 -4 11 -23 13 -42 6 -72 80 -101 116 -45 19 28 12 36 -25 28 -24 -5 -35 1 -63 31 -19 20 -38 36 -43 36 -4 0 -3 -4 2 -8z"/> <path d="M4412 978 c-18 -18 -15 -27 8 -25 12 1 20 8 20 19 0 21 -11 23 -28 6z"/> <path d="M1928 967 c-12 -29 -10 -73 3 -60 6 6 9 26 7 44 -2 26 -5 30 -10 16z"/> <path d="M1769 943 c-1 -15 -3 -38 -4 -50 -2 -19 1 -20 20 -11 15 6 34 6 59 0 40 -11 41 3 1 18 -13 5 -29 21 -37 36 -18 39 -38 42 -39 7z"/> <path d="M4297 942 c-15 -16 -15 -21 -2 -46 8 -16 15 -33 15 -38 0 -13 30 -42 36 -35 3 3 -2 19 -11 36 -20 39 -6 40 48 2 49 -33 107 -64 112 -59 8 7 -11 24 -48 43 -44 23 -101 74 -110 98 -8 22 -20 21 -40 -1z"/> <path d="M1651 931 c-61 -113 32 -304 146 -300 l28 1 -32 9 c-46 13 -88 56 -117 119 -28 61 -31 86 -15 143 12 44 6 59 -10 28z"/> <path d="M2532 910 c4 -21 52 -20 56 1 2 12 -5 16 -28 15 -21 -1 -30 -5 -28 -16z"/> <path d="M1888 840 c-4 -52 -4 -52 34 -55 48 -3 84 -27 106 -72 24 -51 43 -55 28 -7 -14 48 -64 99 -100 102 -37 3 -46 9 -46 33 0 25 -20 25 -22 -1z"/> <path d="M1854 738 c4 -25 3 -49 -2 -52 -13 -8 -12 -56 1 -56 6 0 21 -9 33 -21 27 -25 56 -22 30 3 -9 9 -16 21 -16 26 0 6 -5 12 -12 14 -6 2 -12 26 -12 56 -1 29 -7 57 -15 64 -11 11 -12 5 -7 -34z"/> <path d="M2288 757 c-5 -10 -8 -51 -8 -90 0 -56 5 -81 23 -111 27 -48 108 -109 138 -104 17 2 9 11 -39 42 -74 48 -94 87 -102 201 -3 50 -8 73 -12 62z"/> <path d="M2696 692 c-7 -12 36 -71 57 -78 9 -3 17 -10 17 -15 0 -12 77 -12 82 0 2 6 16 12 32 14 17 2 32 9 34 15 5 15 -11 15 -26 0 -6 -6 -32 -11 -58 -12 -43 -1 -49 2 -83 42 -37 43 -46 48 -55 34z"/> <path d="M2457 643 c-9 -14 30 -63 49 -63 11 0 10 4 -3 18 -10 10 -23 27 -29 37 -6 12 -13 15 -17 8z"/> <path d="M2355 420 c-4 -6 3 -10 14 -10 12 0 21 -4 21 -9 0 -5 7 -11 14 -14 10 -4 13 -1 10 7 -7 19 -52 38 -59 26z"/> </g> </svg> 