<?xml version="1.0" standalone="no"?>
<!DOCTYPE svg PUBLIC "-//W3C//DTD SVG 20010904//EN"
 "http://www.w3.org/TR/2001/REC-SVG-20010904/DTD/svg10.dtd">
<svg version="1.0" xmlns="http://www.w3.org/2000/svg"
 width="300.000000pt" height="300.000000pt" viewBox="0 0 300.000000 300.000000"
 preserveAspectRatio="xMidYMid meet">
<metadata>
Created by potrace 1.10, written by Peter Selinger 2001-2011
</metadata>
<g transform="translate(0.000000,300.000000) scale(0.100000,-0.100000)"
fill="#000000" stroke="none">
<path d="M1471 2995 c3 -2 82 -7 175 -10 93 -3 176 -8 186 -11 9 -2 19 -1 22
4 3 5 0 10 -7 12 -24 5 -381 11 -376 5z"/>
<path d="M1449 2949 c-1 -8 -2 -68 -3 -134 -1 -115 -2 -120 -22 -123 -12 -2
-25 -11 -28 -20 -4 -9 -13 -28 -21 -42 -8 -14 -15 -48 -15 -76 0 -46 4 -56 42
-100 24 -27 46 -51 50 -54 4 -3 10 -28 13 -56 7 -49 6 -52 -25 -74 -31 -22
-52 -57 -56 -95 -3 -29 31 -98 56 -113 17 -10 21 -20 17 -41 -4 -20 -1 -30 14
-39 10 -7 19 -19 19 -28 0 -19 20 -14 33 8 8 11 5 23 -11 43 -23 29 -28 60
-12 70 19 12 10 25 -16 25 -28 0 -84 49 -84 73 0 8 9 26 20 40 11 14 20 30 20
36 0 16 37 13 43 -3 3 -8 3 -24 0 -35 -6 -24 12 -29 21 -5 10 27 7 162 -5 187
-6 14 -21 30 -33 37 -41 23 -86 90 -86 129 0 45 30 95 67 113 31 15 31 8 18
183 -6 91 -13 130 -16 94z"/>
<path d="M2500 2403 c0 -7 -5 -13 -11 -13 -7 0 -19 -8 -28 -18 -9 -11 -36 -32
-61 -48 -34 -21 -40 -29 -27 -32 24 -5 108 46 114 69 3 10 9 17 13 14 13 -8
20 9 9 25 -6 10 -9 11 -9 3z"/>
<path d="M2810 2337 c-143 -16 -389 -81 -435 -115 -18 -13 -17 -14 20 -8 22 3
65 13 95 21 75 21 242 54 313 62 31 3 57 10 57 15 0 5 8 7 19 3 10 -3 30 -1
45 4 17 7 26 7 26 1 0 -13 37 -13 45 1 4 6 4 13 1 17 -10 9 -102 9 -186 -1z"/>
<path d="M670 2252 c0 -5 16 -16 35 -25 66 -32 60 -81 -18 -130 -60 -38 -137
-120 -161 -171 -37 -78 -9 -158 70 -197 37 -18 57 -21 109 -16 63 5 64 4 74
-23 5 -16 7 -30 5 -33 -10 -9 -44 6 -44 19 0 8 -4 14 -10 14 -5 0 -7 -7 -4
-15 4 -9 0 -15 -9 -15 -8 0 -18 6 -20 13 -4 10 -6 10 -6 0 -1 -15 -31 -18 -31
-4 0 5 -15 12 -33 15 -49 9 -122 59 -138 95 -8 17 -17 31 -21 31 -13 0 -9 65
6 108 8 23 36 72 61 109 25 37 56 83 68 101 16 24 28 31 45 29 12 -3 22 -1 22
3 0 11 -48 60 -58 60 -16 0 -21 -13 -12 -31 7 -12 7 -20 0 -24 -6 -4 -17 -21
-24 -40 -8 -18 -27 -39 -43 -47 -18 -9 -29 -22 -31 -40 -4 -30 -261 -297 -313
-323 -17 -9 -29 -19 -26 -21 9 -10 60 17 91 49 59 59 159 147 168 147 4 0 8
-19 8 -43 0 -77 68 -152 163 -181 28 -9 19 -27 -12 -24 -16 1 -36 -4 -45 -11
-9 -8 -32 -16 -52 -18 -37 -4 -84 -29 -84 -44 0 -5 -11 -9 -24 -9 -14 0 -33
-10 -43 -23 -10 -12 -35 -31 -55 -40 -36 -17 -42 -26 -39 -54 1 -6 -12 -14
-29 -18 -16 -4 -32 -11 -36 -16 -3 -6 4 -8 18 -5 12 3 44 7 71 10 26 3 51 7
56 11 5 3 11 0 13 -7 3 -7 7 -2 11 11 5 21 3 22 -31 18 -20 -3 -46 -1 -57 3
-35 14 29 33 71 21 22 -6 36 -6 40 1 3 5 13 7 21 4 8 -3 23 -1 34 4 13 7 19 7
19 0 0 -5 -5 -10 -11 -10 -5 0 -8 -4 -4 -9 3 -5 -4 -16 -14 -23 -20 -14 -20
-15 4 -41 14 -14 31 -30 39 -34 8 -4 26 -28 40 -53 25 -44 35 -36 16 14 -8 23
-7 26 16 32 17 4 29 2 35 -7 12 -19 11 -66 -1 -90 -7 -12 -7 -19 -1 -19 5 0
13 10 17 23 4 12 11 25 16 28 5 3 0 27 -12 53 -20 47 -27 81 -12 61 13 -18 35
-17 28 0 -3 9 -6 19 -6 21 0 2 -8 4 -17 4 -10 0 -14 4 -8 8 15 11 17 32 3 32
-9 0 -8 3 2 10 8 5 11 12 7 16 -4 4 -13 2 -19 -4 -14 -14 -48 -16 -48 -3 0 15
81 25 90 11 5 -9 17 -10 36 -5 l29 8 -30 7 c-30 8 -29 8 8 9 26 1 37 -3 37
-13 0 -11 13 -13 61 -9 55 4 66 9 102 43 21 21 45 36 52 34 6 -3 18 2 25 11
11 13 9 14 -16 10 -16 -2 -50 -7 -76 -10 -38 -5 -48 -10 -48 -25 0 -21 -35
-46 -44 -31 -3 5 4 22 16 37 12 16 15 23 8 17 -20 -18 -25 -16 -39 13 -15 34
-8 41 23 20 32 -20 57 -21 50 -1 -8 19 5 19 31 1 12 -7 28 -10 39 -6 14 4 16
9 8 14 -18 11 -14 23 9 29 17 4 19 10 14 29 -4 13 -12 26 -17 29 -7 4 -6 14 1
27 17 32 14 46 -20 85 l-31 37 -19 -24 c-11 -13 -19 -30 -19 -38 -1 -34 -54
-68 -105 -68 -45 0 -109 40 -131 81 -14 27 -14 38 -3 78 7 25 25 64 40 87 29
42 103 114 118 114 5 0 25 15 45 33 35 32 35 34 19 58 -30 45 -67 79 -85 79
-10 0 -18 -4 -18 -8z m178 -447 c2 -10 -2 -22 -10 -26 -10 -7 -8 -10 10 -15
12 -4 22 -11 22 -16 0 -5 -9 -6 -20 -3 -25 8 -26 -3 -3 -21 27 -19 8 -28 -26
-13 -35 16 -35 14 -20 60 6 19 13 40 15 47 6 19 28 10 32 -13z m-28 -115 c0
-5 9 -10 20 -10 11 0 20 -4 20 -9 0 -17 -18 -21 -44 -11 -28 10 -36 40 -11 40
8 0 15 -4 15 -10z m-141 -87 c22 -16 40 -31 41 -35 0 -5 -23 -4 -40 2 -3 1 -9
2 -13 1 -5 -1 -17 9 -27 21 -38 46 -19 51 39 11z m-67 -17 c20 -24 22 -36 7
-36 -28 0 -92 47 -83 61 8 14 57 -2 76 -25z m-95 -18 c18 -13 33 -26 33 -29 0
-14 -78 -1 -105 17 l-29 19 29 6 c17 4 32 7 34 8 3 0 20 -9 38 -21z m-104 -43
c11 -7 25 -11 33 -8 8 3 14 1 14 -5 0 -6 10 -8 23 -5 16 3 18 2 8 -5 -21 -15
-151 0 -151 18 0 5 10 11 23 13 12 2 24 5 27 5 3 1 13 -5 23 -13z m107 -72
c21 -18 27 -58 11 -67 -5 -4 -12 7 -16 23 -4 21 -12 29 -26 28 -10 -1 -19 -4
-19 -8 0 -4 -10 -5 -21 -2 -21 6 -21 7 5 20 28 15 36 26 11 17 -8 -4 -15 -1
-15 6 0 16 44 5 70 -17z m-30 -62 c16 -31 12 -36 -12 -14 -13 11 -30 23 -38
26 -9 3 -3 6 12 6 17 1 31 -6 38 -18z"/>
<path d="M1588 2225 c-9 -9 1 -128 11 -138 16 -16 26 0 11 18 -8 10 -11 33 -8
65 5 46 -1 68 -14 55z"/>
<path d="M2164 2184 c-20 -9 -3 -43 32 -65 36 -22 109 -111 139 -168 24 -47
16 -123 -15 -156 -25 -27 -59 -32 -78 -13 -9 9 -12 9 -12 -3 0 -8 9 -20 21
-27 18 -11 25 -9 59 18 24 19 45 48 56 76 23 61 11 97 -79 232 -69 103 -90
120 -123 106z"/>
<path d="M2314 2165 c11 -8 29 -15 40 -15 21 1 21 1 2 15 -11 8 -29 15 -40 15
-21 -1 -21 -1 -2 -15z"/>
<path d="M895 2118 c12 -51 26 -68 87 -96 51 -24 80 -54 65 -68 -6 -7 -111 31
-150 53 -23 13 -37 32 -48 66 -8 26 -18 49 -21 53 -9 8 -17 -27 -13 -56 2 -14
4 -33 4 -42 1 -9 11 -29 24 -43 19 -23 34 -28 101 -36 57 -6 90 -15 117 -34
46 -30 64 -33 30 -5 -13 11 -19 20 -14 20 14 0 44 -35 37 -43 -4 -4 5 -11 20
-17 15 -5 26 -16 25 -22 -1 -7 1 -21 6 -31 4 -10 4 -22 -1 -27 -14 -14 -82 0
-88 17 -8 21 4 39 15 22 11 -19 19 -7 13 17 -8 32 -70 56 -159 62 -61 4 -87
10 -110 27 -45 33 -52 36 -52 20 0 -8 5 -15 11 -15 17 0 42 -33 38 -51 -2 -11
6 -15 33 -16 19 -1 35 3 35 8 0 5 19 9 43 8 41 -1 41 -1 15 -12 -16 -6 -28
-14 -28 -19 0 -12 8 -10 37 9 19 13 28 14 31 5 2 -7 13 -10 28 -6 20 5 24 2
24 -15 0 -14 -9 -25 -25 -31 -14 -5 -25 -12 -25 -15 0 -4 4 -4 9 0 6 3 13 0
18 -7 4 -7 17 -13 28 -13 15 0 19 -6 17 -24 -2 -21 1 -23 25 -17 88 20 98 19
135 -13 36 -32 53 -38 62 -22 10 16 -64 91 -90 91 -26 0 -31 18 -14 50 9 17 3
24 -42 53 -67 43 -87 65 -69 77 11 6 10 13 -5 34 -20 27 -44 34 -44 14 0 -8
-3 -9 -8 -3 -4 6 -25 19 -46 30 -27 14 -45 32 -55 57 -20 46 -35 50 -26 6z"/>
<path d="M2008 2090 l-17 -40 29 26 c15 15 26 33 23 41 -8 22 -17 15 -35 -27z"/>
<path d="M2455 2091 c-10 -17 15 -23 124 -31 136 -11 302 -29 365 -41 27 -5
50 -9 52 -9 2 0 4 8 4 19 0 26 -70 36 -472 66 -37 3 -69 1 -73 -4z"/>
<path d="M2345 2080 c-4 -6 11 -18 32 -26 21 -9 51 -25 66 -36 35 -25 156 -90
325 -176 72 -37 132 -72 132 -79 0 -9 -7 -10 -26 -3 -14 6 -52 10 -85 10 -57
0 -59 -1 -59 -26 0 -23 2 -25 15 -14 23 19 165 7 215 -18 l40 -19 0 22 c0 33
-87 87 -415 255 -99 51 -185 98 -191 106 -13 16 -40 18 -49 4z"/>
<path d="M2070 2040 c-12 -17 -39 -39 -61 -50 -21 -11 -39 -22 -39 -24 0 -2
17 0 38 5 38 8 92 57 92 84 0 22 -6 19 -30 -15z"/>
<path d="M1110 2049 c0 -6 18 -28 40 -48 22 -20 40 -42 40 -49 0 -7 5 -10 10
-7 17 10 12 20 -35 69 -48 48 -55 53 -55 35z"/>
<path d="M1340 2046 c0 -7 7 -19 16 -27 9 -7 13 -21 10 -33 -8 -34 3 -43 88
-70 18 -6 18 -7 1 -26 -28 -31 -49 -24 -97 28 -45 51 -88 81 -88 62 0 -5 4
-10 10 -10 5 0 27 -23 47 -51 25 -33 48 -52 66 -56 28 -6 77 -55 77 -77 0 -7
-16 -21 -35 -32 -32 -17 -54 -44 -36 -44 4 0 27 14 49 30 23 17 44 30 46 30 3
0 4 -19 3 -42 l-2 -43 -69 -1 c-59 -1 -72 -5 -88 -24 -25 -31 -23 -40 10 -31
15 5 64 6 108 3 54 -3 84 -1 88 7 4 6 35 11 72 11 50 0 64 3 64 15 0 12 -14
15 -64 15 -55 0 -67 -3 -80 -22 -9 -12 -17 -20 -20 -17 -11 11 -10 153 1 156
8 3 3 25 -15 68 -23 54 -33 67 -65 81 -50 23 -61 37 -48 63 8 15 7 23 -5 35
-19 20 -44 21 -44 2z"/>
<path d="M426 2015 c-8 -8 -19 -15 -25 -15 -5 0 -38 -27 -72 -60 -34 -33 -66
-60 -72 -60 -13 0 -117 -109 -117 -122 0 -13 23 5 75 57 22 22 84 78 138 123
53 46 97 86 97 88 0 8 -9 4 -24 -11z"/>
<path d="M2390 1996 c0 -9 15 -28 33 -43 56 -48 270 -263 265 -268 -2 -2 -26
2 -52 10 -27 8 -78 16 -115 17 -56 3 -71 -1 -99 -21 -18 -12 -50 -25 -71 -28
-53 -7 -63 13 -17 32 39 17 96 86 96 118 0 16 -4 13 -22 -13 -31 -46 -141
-138 -175 -146 -15 -4 -58 -3 -95 2 -37 5 -68 6 -68 2 0 -13 -40 -9 -44 5 -2
6 -8 26 -13 44 -7 19 -8 47 -3 67 6 26 4 39 -6 47 -16 13 -95 30 -106 23 -12
-7 3 -34 19 -34 8 0 27 -7 42 -15 28 -14 29 -16 24 -77 -2 -35 1 -70 6 -78 13
-19 154 -29 226 -17 28 5 76 8 107 8 46 -1 66 4 98 24 37 24 46 25 123 19 95
-7 138 -18 189 -51 79 -49 65 -20 -58 118 -95 108 -251 259 -275 267 -5 2 -9
-3 -9 -12z"/>
<path d="M2118 1964 c-16 -8 -28 -21 -28 -28 0 -9 -22 -15 -71 -20 -68 -6
-129 -27 -129 -45 0 -4 24 0 53 10 28 10 73 18 98 19 41 0 51 5 78 35 42 49
42 53 -1 29z"/>
<path d="M2960 1945 c-10 -12 -8 -29 11 -88 17 -51 25 -65 27 -48 2 13 -5 39
-15 58 -17 33 -17 35 0 44 20 12 23 49 3 49 -7 0 -19 -7 -26 -15z"/>
<path d="M1190 1913 c0 -11 63 -87 92 -111 24 -20 31 -22 44 -11 17 14 31 4
36 -26 2 -14 -2 -19 -13 -17 -9 1 -22 -5 -29 -13 -18 -22 7 -20 46 4 25 15 31
25 28 47 -2 26 -18 44 -40 44 -6 0 -20 11 -32 25 -25 28 -52 33 -52 9 0 -9 -6
-14 -12 -11 -7 2 -12 13 -11 24 1 13 -7 24 -23 32 -29 13 -34 13 -34 4z"/>
<path d="M1578 1891 c-39 -22 -45 -43 -10 -35 34 8 45 18 40 36 -2 12 -7 12
-30 -1z"/>
<path d="M1726 1881 c-11 -4 -15 -10 -10 -14 14 -8 54 3 54 14 0 11 -17 11
-44 0z"/>
<path d="M880 1853 c0 -6 9 -21 20 -34 15 -18 19 -20 20 -8 0 9 -9 24 -20 34
-11 10 -20 13 -20 8z"/>
<path d="M2050 1851 c0 -6 4 -12 10 -16 5 -3 7 -12 3 -20 -3 -9 1 -15 8 -15
11 -1 10 -4 -2 -13 -14 -11 -14 -14 3 -31 18 -19 18 -19 18 23 0 44 -14 81
-30 81 -6 0 -10 -4 -10 -9z"/>
<path d="M1677 1823 c-15 -14 -6 -24 20 -21 34 4 43 28 11 28 -14 0 -28 -3
-31 -7z"/>
<path d="M1610 1801 c0 -25 40 -55 54 -41 6 6 2 18 -14 35 -28 30 -40 32 -40
6z"/>
<path d="M943 1803 c-9 -3 -13 -25 -13 -61 0 -36 4 -52 9 -43 5 7 6 22 3 33
-2 11 1 30 8 44 14 26 12 34 -7 27z"/>
<path d="M1775 1791 c-8 -10 -15 -19 -15 -22 0 -3 83 -3 113 0 12 2 8 31 -5
32 -7 0 -27 2 -45 3 -21 2 -38 -2 -48 -13z"/>
<path d="M1560 1788 c0 -9 14 -26 30 -38 17 -12 30 -17 30 -13 0 5 -13 22 -30
38 -22 22 -30 25 -30 13z"/>
<path d="M1690 1752 c0 -21 56 -57 65 -42 6 9 -42 59 -57 60 -5 0 -8 -8 -8
-18z"/>
<path d="M964 1702 c-1 -21 -7 -49 -14 -62 -12 -23 -14 -23 -20 -6 -6 18 -7
18 -13 2 -10 -25 -10 -26 18 -26 45 0 28 -30 -67 -122 -97 -93 -97 -90 -13
-73 17 4 23 10 18 18 -14 22 -13 47 1 47 22 0 30 -19 16 -35 -7 -8 -9 -15 -5
-15 4 0 2 -7 -5 -15 -7 -9 -8 -15 -2 -15 5 0 15 14 21 30 11 33 25 39 35 14 3
-8 2 -12 -4 -9 -6 3 -11 0 -11 -7 -1 -7 -3 -27 -5 -44 l-2 -31 73 1 c62 1 78
-3 104 -22 30 -22 33 -22 54 -6 17 12 17 15 4 10 -10 -3 -27 0 -38 7 -21 15
-16 27 11 27 10 0 23 7 31 16 19 23 -6 36 -56 29 -29 -4 -34 -3 -20 4 28 12
47 36 45 58 -5 44 1 103 10 103 6 0 10 -31 10 -74 0 -72 8 -94 30 -81 8 5 7
11 -1 21 -20 24 -2 28 22 5 13 -12 27 -21 32 -21 4 0 20 -13 34 -30 15 -19 34
-30 50 -30 27 0 27 11 3 74 -10 28 -45 50 -62 40 -7 -5 -9 -2 -5 9 4 11 2 14
-9 10 -9 -3 -12 0 -9 9 7 17 -58 72 -70 60 -3 -4 -5 -1 -3 7 2 7 -6 15 -17 17
-94 14 -91 16 -99 -83 -4 -55 -3 -90 4 -97 5 -5 10 -16 10 -23 0 -9 -7 -7 -22
7 -13 12 -24 16 -26 10 -2 -5 -18 -9 -35 -9 -18 1 -24 3 -15 6 9 2 20 14 24
25 4 15 8 17 14 8 6 -9 9 -9 15 -1 4 7 0 22 -9 35 -15 24 -12 66 6 66 5 0 4
-9 -3 -21 -7 -14 -7 -25 -1 -31 7 -7 12 4 17 32 8 45 0 63 -16 40 -9 -12 -10
-12 -5 3 3 10 6 21 6 23 0 3 5 2 10 -1 6 -3 10 -1 10 4 0 6 -12 12 -27 12 -27
2 -27 2 -3 6 45 7 90 24 90 34 0 13 -17 11 -50 -6 -20 -11 -31 -12 -36 -4 -3
6 -1 14 5 18 9 6 9 15 1 35 -5 15 -8 31 -5 36 4 6 -16 20 -28 20 -2 0 -3 -17
-3 -38z m-16 -202 c-1 -34 -6 -37 -23 -13 -11 14 -10 20 4 30 9 7 17 13 18 13
1 0 1 -13 1 -30z"/>
<path d="M1530 1736 c0 -13 34 -36 53 -36 19 0 17 3 -11 20 -33 20 -42 24 -42
16z"/>
<path d="M1155 1641 c-6 -5 -19 -11 -30 -14 -14 -3 -11 -5 10 -6 23 -1 47 -18
105 -76 l75 -75 0 69 c0 68 -1 69 -27 73 -20 3 -29 0 -34 -14 -3 -10 -10 -16
-15 -13 -13 9 -11 45 4 46 13 1 -38 16 -63 18 -9 0 -20 -3 -25 -8z"/>
<path d="M1380 1621 c0 -6 -9 -11 -21 -11 -20 0 -20 -4 -17 -121 l3 -122 77 6
c43 4 78 3 78 -2 0 -5 -10 -21 -21 -36 l-22 -27 24 3 c13 2 29 1 34 -3 7 -4 9
8 7 32 -2 21 1 41 7 44 6 4 11 2 11 -3 0 -12 33 -15 43 -5 3 4 2 15 -4 25 -9
17 -22 19 -116 19 l-107 0 29 30 c24 25 31 28 44 17 14 -11 14 -10 2 6 -12 15
-9 21 11 18 4 0 5 5 3 12 -3 6 16 34 42 60 l46 48 -59 -3 c-46 -2 -60 -7 -62
-20 -2 -12 5 -18 27 -20 l30 -3 -56 -68 c-31 -37 -57 -66 -59 -64 -9 8 10 76
19 70 6 -4 8 0 4 10 -3 9 -2 19 4 23 6 3 8 12 5 20 -3 8 -1 25 4 39 6 15 6 26
0 30 -6 4 -10 1 -10 -4z"/>
<path d="M1603 1606 c4 -10 1 -13 -7 -10 -13 5 -116 -98 -136 -135 -8 -17 -6
-19 24 -19 33 0 56 22 40 37 -4 3 -9 0 -11 -6 -3 -7 -9 -13 -15 -13 -5 0 14
27 43 60 28 33 56 57 60 54 5 -3 9 -37 9 -75 0 -52 3 -70 13 -67 6 3 14 24 16
49 l4 44 13 -40 13 -40 -4 45 c-2 25 -4 49 -4 53 -1 5 -5 6 -9 3 -5 -3 -8 10
-7 29 2 19 -1 33 -5 30 -5 -3 -11 -1 -15 5 -10 16 -28 12 -22 -4z"/>
<path d="M1680 1591 c0 -15 8 -21 33 -23 17 -2 31 -8 30 -14 -2 -14 40 -11 44
3 6 17 -47 53 -78 53 -22 0 -29 -5 -29 -19z"/>
<path d="M1800 1602 c0 -5 6 -15 14 -21 7 -6 16 -42 20 -81 4 -39 11 -70 15
-70 17 0 30 26 21 40 -12 19 -13 33 -1 26 12 -8 6 44 -6 53 -5 3 -9 17 -9 31
0 20 -5 26 -27 28 -15 2 -27 -1 -27 -6z"/>
<path d="M1890 1590 c0 -13 7 -20 20 -20 11 0 30 -10 41 -21 17 -17 23 -19 30
-8 15 25 10 36 -25 53 -46 22 -66 20 -66 -4z"/>
<path d="M2046 1593 c-4 -4 3 -14 14 -23 15 -12 24 -34 31 -85 10 -63 13 -70
34 -70 21 0 22 1 9 37 -7 20 -10 39 -7 42 4 3 1 6 -5 6 -7 0 -12 17 -12 44 0
31 -5 46 -16 50 -21 8 -39 8 -48 -1z"/>
<path d="M2154 1525 c4 -42 11 -86 16 -98 7 -15 8 -7 3 28 -4 28 -7 71 -6 98
1 26 -3 47 -9 47 -7 0 -8 -26 -4 -75z"/>
<path d="M2277 1593 c-4 -3 -7 -16 -7 -28 0 -12 -9 -48 -20 -80 -24 -69 -24
-72 -7 -72 7 0 14 8 14 18 1 9 11 48 22 87 12 38 21 72 21 76 0 8 -15 8 -23
-1z"/>
<path d="M2304 1531 c-6 -23 -7 -41 -3 -41 5 0 9 8 9 18 1 14 3 14 19 -5 19
-22 51 -31 51 -15 0 5 -15 26 -33 46 l-32 38 -11 -41z"/>
<path d="M2010 1535 c-7 -8 -19 -15 -26 -15 -16 0 -19 -16 -5 -24 14 -9 40 4
51 25 13 23 -3 34 -20 14z"/>
<path d="M1684 1504 c3 -9 6 -18 6 -20 0 -2 11 -4 24 -4 13 0 26 -6 29 -12 3
-10 8 -10 17 -2 9 9 9 17 1 33 -15 27 -87 32 -77 5z"/>
<path d="M830 1495 c-7 -8 -19 -15 -26 -15 -8 0 -14 -4 -14 -8 0 -5 -15 -19
-32 -32 l-33 -23 28 30 c24 26 26 31 12 37 -24 9 -25 8 -25 -13 0 -20 -27 -48
-37 -37 -3 3 0 6 7 6 7 0 1 11 -14 25 -35 32 -48 32 -36 -1 7 -17 6 -32 -2
-47 -11 -22 -12 -21 -20 8 -5 22 -14 31 -28 31 -21 0 -27 -11 -10 -21 6 -3 10
-15 10 -26 0 -12 7 -19 20 -20 11 -1 26 -2 33 -3 6 -1 18 2 25 7 7 6 15 7 19
4 7 -8 80 43 117 82 17 17 27 31 24 31 -3 0 -11 -7 -18 -15z"/>
<path d="M1901 1493 c0 -10 25 -40 56 -68 59 -52 64 -54 208 -60 28 -1 69 -5
92 -9 35 -6 44 -5 49 9 4 9 4 18 1 22 -3 3 -52 7 -109 9 -115 5 -181 19 -200
43 -12 14 -11 14 5 2 29 -23 19 -7 -15 25 -18 16 -28 22 -23 14 6 -9 1 -6 -10
7 -25 27 -55 30 -54 6z"/>
<path d="M2415 1500 c15 -28 38 -50 46 -44 13 8 11 24 -3 24 -6 0 -20 8 -31
18 -15 12 -18 13 -12 2z"/>
<path d="M1785 1463 c-5 -10 -9 -22 -9 -28 -1 -12 -82 -12 -111 -1 -16 6 -17
6 -5 -4 12 -9 7 -11 -22 -8 -34 4 -38 1 -38 -18 0 -22 4 -23 96 -26 103 -3
112 1 95 44 -6 17 -6 29 2 37 6 6 8 13 5 16 -3 3 -9 -2 -13 -12z"/>
<path d="M2280 1457 c0 -8 -3 -24 -6 -34 -6 -15 -4 -16 7 -5 7 6 32 12 55 12
47 0 74 -25 74 -66 0 -24 18 -31 95 -36 30 -2 40 1 43 14 2 12 -8 18 -40 24
-24 4 -54 7 -68 5 -23 -1 -23 0 -8 12 16 13 16 15 -2 45 -11 18 -28 32 -38 32
-11 0 -40 3 -66 6 -38 6 -46 4 -46 -9z"/>
<path d="M2902 1417 c19 -21 24 -19 31 9 1 4 -10 8 -25 10 l-27 3 21 -22z"/>
<path d="M1853 1422 c-25 -2 -33 -8 -33 -23 0 -17 7 -19 60 -19 45 0 60 4 60
14 0 18 -45 32 -87 28z"/>
<path d="M302 1398 c-7 -7 -12 -8 -12 -3 0 5 -7 0 -15 -11 -13 -18 -14 -18
-15 -1 0 12 -4 16 -12 10 -14 -8 -35 -14 -58 -15 -17 -1 -73 -38 -67 -45 3 -2
22 3 43 11 22 8 55 17 75 19 20 2 48 12 62 22 31 20 35 11 10 -18 -17 -19 -17
-20 8 -15 18 3 30 -1 38 -14 6 -10 17 -18 25 -18 23 0 27 -29 6 -40 -11 -6
-21 -6 -24 -1 -4 5 0 12 6 14 10 4 10 6 1 6 -7 1 -15 0 -17 -1 -2 -2 -14 8
-26 22 -12 14 -18 18 -14 10 7 -12 3 -12 -18 2 -24 16 -38 15 -38 -4 0 -4 18
-15 40 -24 67 -27 73 -45 37 -115 l-31 -59 23 -28 c12 -15 24 -35 28 -44 7
-22 22 -23 29 -3 3 8 -4 29 -17 46 l-22 32 23 68 c13 37 27 66 30 64 4 -2 13
5 20 16 8 10 20 19 26 19 15 0 24 -33 14 -51 -4 -8 -10 -40 -14 -73 -5 -47 -3
-57 8 -53 8 3 16 -2 19 -14 3 -11 11 -19 19 -18 26 3 35 -1 46 -26 15 -33 -5
-46 -29 -17 -9 12 -25 22 -35 22 -10 0 -26 8 -37 18 -19 16 -20 16 -14 -1 4
-11 -1 -24 -13 -34 -11 -10 -20 -26 -20 -36 0 -15 -5 -18 -21 -14 -15 4 -19 3
-12 -4 6 -6 20 -11 32 -12 11 -1 21 -4 21 -8 0 -10 31 -20 42 -13 5 3 -1 11
-14 18 -20 10 -39 56 -23 56 16 0 45 -22 45 -34 0 -9 7 -12 19 -9 15 4 22 -3
31 -31 6 -20 16 -36 22 -36 5 0 8 3 6 8 -2 4 -10 19 -18 35 -10 20 -11 30 -2
39 13 13 42 -6 42 -27 0 -6 10 -20 21 -31 23 -20 23 -18 0 29 -20 39 -7 44 33
13 19 -14 41 -26 48 -26 8 0 18 -4 23 -9 6 -6 21 -5 39 3 l29 12 -27 18 c-15
9 -51 20 -79 22 -56 5 -77 17 -77 43 0 20 -31 50 -73 71 -32 16 -44 49 -28 78
6 11 9 27 8 34 -2 7 -2 10 0 5 7 -11 23 2 23 18 0 9 -6 12 -15 9 -10 -4 -15 0
-15 11 0 9 5 13 11 9 8 -4 7 0 -1 15 -6 12 -16 21 -23 19 -19 -4 -58 22 -51
34 5 7 -1 9 -20 4 -19 -5 -26 -3 -26 8 0 9 -9 20 -19 26 -24 13 -24 13 -39 -2z"/>
<path d="M805 1393 c-64 -4 -95 -11 -95 -22 0 -5 8 -8 18 -8 9 0 31 -1 47 -2
29 -2 29 -2 11 -16 -11 -8 -16 -16 -10 -16 20 -3 49 3 60 12 6 5 13 6 17 3 3
-3 15 -3 26 1 14 4 18 11 14 23 -7 17 -24 33 -33 30 -3 -1 -27 -3 -55 -5z"/>
<path d="M62 1367 c2 -16 -7 -32 -27 -50 -28 -24 -28 -26 -7 -22 26 4 50 25
52 46 4 28 0 49 -11 49 -6 0 -9 -11 -7 -23z"/>
<path d="M18 1372 c-12 -2 -18 -13 -18 -30 l0 -26 21 21 c24 24 22 40 -3 35z"/>
<path d="M218 1338 c-16 -15 -29 -19 -78 -26 -36 -5 -60 -18 -60 -34 0 -5 7
-5 18 0 35 18 74 24 70 10 -3 -7 -10 -13 -15 -13 -6 0 -15 -3 -19 -7 -4 -5
-18 -8 -32 -8 -19 0 -22 -3 -13 -13 6 -8 7 -17 3 -21 -4 -4 5 -2 21 5 15 7 27
17 27 23 0 6 5 5 12 -2 10 -10 10 -15 -2 -22 -17 -11 -15 -76 5 -124 15 -36
82 -106 102 -106 6 0 15 5 18 10 3 6 -1 10 -9 10 -16 0 -66 45 -66 59 0 5 -7
14 -15 21 -10 8 -15 30 -15 69 1 57 14 92 58 150 23 31 16 43 -10 19z"/>
<path d="M528 1311 c3 -27 -3 -52 -22 -87 -19 -35 -23 -51 -14 -61 6 -7 7 -13
2 -14 -5 0 0 -4 11 -8 24 -9 57 -2 49 10 -3 5 -13 8 -21 7 -9 -2 -18 3 -21 11
-3 10 1 12 17 8 26 -6 26 -4 4 19 -17 17 -17 18 0 11 11 -4 17 -2 17 9 0 9 -5
12 -11 8 -8 -4 -9 1 -3 17 4 13 7 30 7 37 0 6 4 12 9 12 12 0 10 34 -4 48 -20
20 -24 14 -20 -27z"/>
<path d="M900 1331 c0 -14 -44 -21 -52 -8 -5 8 -8 6 -8 -7 0 -15 -3 -16 -15
-6 -13 11 -14 10 -10 -1 7 -19 -96 -62 -107 -45 -5 7 -8 5 -8 -6 0 -25 -14
-22 -30 6 -13 26 -40 25 -40 -1 0 -10 6 -12 20 -8 16 5 20 2 20 -15 0 -13 -4
-18 -11 -15 -6 4 -5 -3 3 -14 9 -16 14 -18 16 -7 3 13 59 46 79 46 6 0 23 6
39 14 16 8 42 17 57 20 16 3 35 10 43 17 11 9 17 5 29 -24 19 -45 19 -48 0
-41 -8 4 -15 1 -15 -5 0 -7 -10 -16 -22 -21 l-23 -9 23 0 c12 -1 22 3 22 9 0
5 8 9 18 8 28 -4 112 13 112 22 0 5 -9 25 -21 44 -25 43 -16 46 23 10 20 -20
25 -31 18 -44 -7 -13 -1 -20 36 -35 28 -11 44 -24 44 -35 0 -11 10 -20 25 -22
14 -3 25 -1 25 3 0 5 -4 9 -10 9 -5 0 -10 5 -10 11 0 13 -58 69 -71 69 -6 0
-9 6 -8 13 6 48 -25 72 -99 76 l-43 2 21 -21 c20 -20 29 -87 10 -75 -5 3 -10
15 -10 26 0 11 -4 17 -10 14 -5 -3 -7 0 -4 8 3 9 -4 22 -18 31 -25 18 -38 20
-38 7z"/>
<path d="M1351 1332 c-1 -9 -11 -12 -35 -8 -19 3 -38 2 -41 -3 -7 -12 104 -26
115 -15 5 5 5 15 0 24 -8 13 -11 13 -19 1 -7 -11 -9 -11 -14 0 -4 11 -6 11 -6
1z"/>
<path d="M1641 1325 l-23 -13 22 -7 c15 -5 26 -2 31 6 19 31 9 35 -30 14z"/>
<path d="M2974 1325 c3 -8 1 -15 -4 -15 -6 0 -10 -7 -10 -15 0 -9 -9 -15 -22
-15 -19 0 -20 -2 -8 -10 12 -7 8 -11 -18 -16 -24 -5 -30 -9 -20 -15 10 -7 9
-9 -4 -9 -10 0 -18 -4 -18 -10 0 -5 -7 -10 -16 -10 -8 0 -13 -4 -10 -9 12 -19
71 7 109 46 27 30 45 93 25 93 -5 0 -8 -7 -4 -15z"/>
<path d="M660 1312 c0 -12 40 -33 50 -27 6 4 10 0 11 -7 0 -7 4 -3 9 10 5 12
15 22 21 22 7 0 10 3 7 6 -3 3 -15 0 -27 -8 -16 -10 -23 -10 -33 0 -13 13 -38
16 -38 4z"/>
<path d="M216 1284 c-3 -9 -6 -27 -6 -40 0 -13 -4 -24 -9 -24 -11 0 -9 -65 2
-76 4 -4 7 -15 7 -25 0 -9 7 -20 16 -23 9 -4 14 -13 10 -21 -3 -10 1 -15 14
-15 10 0 27 -13 37 -30 10 -17 26 -30 37 -30 16 0 17 3 8 12 -7 7 -12 18 -12
25 0 20 -32 53 -52 53 -9 0 -20 5 -24 11 -4 7 0 9 14 5 13 -4 22 -1 26 9 3 8
2 15 -2 15 -4 1 -17 9 -30 20 -20 16 -21 22 -10 39 17 28 28 26 28 -4 0 -20 5
-25 23 -24 16 1 18 2 5 6 -25 6 -22 22 4 32 20 7 20 8 -10 19 -34 12 -66 6
-56 -9 3 -5 0 -9 -5 -9 -14 0 -14 2 2 34 8 14 17 23 20 19 4 -3 7 0 7 8 0 9 3
10 8 3 12 -19 50 -34 66 -28 13 5 12 9 -8 25 -13 10 -36 19 -49 19 -14 0 -29
5 -32 10 -9 15 -22 12 -29 -6z"/>
<path d="M1140 1277 c0 -13 18 -22 72 -32 31 -7 110 -43 156 -73 14 -9 22 -10
22 -3 0 6 -4 11 -9 11 -5 0 -16 6 -23 14 -8 7 -27 21 -43 30 l-30 16 28 -6
c59 -13 119 -52 143 -93 14 -22 20 -42 16 -45 -5 -3 -15 6 -23 20 -7 14 -22
30 -34 36 -19 10 -19 10 1 -10 29 -28 61 -81 70 -117 4 -16 16 -39 26 -50 10
-11 30 -33 43 -50 16 -21 27 -27 34 -20 8 8 3 20 -17 41 -39 43 -51 76 -45
121 4 28 1 42 -11 52 -9 7 -16 18 -16 23 0 5 -11 25 -24 45 -18 26 -34 37 -56
40 -18 1 -39 7 -48 13 -15 8 -14 9 6 10 49 0 18 18 -43 24 -36 3 -94 9 -130
12 -54 6 -65 4 -65 -9z"/>
<path d="M1491 1280 c-43 -3 -66 -10 -69 -19 -4 -11 4 -13 37 -7 35 5 41 4 41
-11 0 -21 32 -103 41 -103 9 0 39 69 39 90 0 10 -6 21 -12 23 -24 10 20 7 46
-3 17 -6 27 -6 32 1 3 6 4 12 2 15 -11 11 -99 19 -157 14z m60 -32 c2 -34 -2
-52 -12 -62 -5 -6 -9 8 -9 37 0 46 19 68 21 25z"/>
<path d="M1820 1279 c-25 -4 -69 -8 -98 -8 -29 -1 -51 -5 -48 -10 3 -4 17 -6
31 -3 18 3 25 0 25 -11 0 -8 -7 -17 -15 -21 -8 -3 -15 -1 -15 4 0 12 -56 -8
-70 -25 -6 -7 -13 -22 -15 -33 -2 -12 -13 -34 -24 -49 -17 -24 -19 -36 -12
-83 5 -30 9 -45 10 -32 0 12 5 22 10 22 5 0 8 16 7 35 -1 19 2 35 7 35 4 0 6
3 3 8 -2 4 1 14 7 23 18 23 103 79 121 79 8 0 30 9 48 19 18 11 52 22 75 26
23 4 47 13 54 21 9 12 6 14 -22 13 -19 -1 -54 -5 -79 -10z"/>
<path d="M2983 1235 c-10 -11 -10 -15 0 -18 9 -4 8 -6 -1 -6 -18 -1 -46 -30
-38 -39 4 -3 10 -2 14 4 4 6 15 13 25 17 10 4 17 17 17 32 0 29 -1 29 -17 10z"/>
<path d="M613 1206 c6 -16 4 -18 -23 -13 -23 5 -30 3 -30 -8 0 -12 7 -14 28
-9 48 12 55 19 36 35 -16 13 -17 12 -11 -5z"/>
<path d="M2814 1198 c3 -12 1 -15 -10 -11 -9 3 -21 -3 -30 -16 -8 -11 -23 -21
-32 -22 -10 0 -12 -3 -5 -6 13 -5 93 26 93 36 0 3 -5 13 -11 21 -9 13 -10 12
-5 -2z"/>
<path d="M827 1172 c-43 -4 -40 -22 4 -22 16 0 29 -4 29 -8 0 -4 15 -6 33 -5
50 5 62 -8 43 -45 -20 -39 -21 -63 -2 -56 8 3 17 1 21 -5 4 -7 -5 -11 -23 -11
-35 0 -59 39 -42 69 7 15 6 20 -8 23 -15 4 -18 -1 -15 -30 1 -19 7 -40 13 -47
8 -10 3 -15 -21 -24 -42 -14 -56 -6 -148 80 -30 29 -44 36 -65 32 -37 -7 -33
-18 12 -29 29 -7 37 -14 35 -30 -2 -15 6 -23 30 -30 17 -5 36 -18 42 -29 9
-18 20 -20 102 -20 102 0 131 -13 163 -73 l18 -32 5 26 c3 19 -3 35 -24 59
-16 18 -29 39 -29 47 0 8 -4 18 -9 24 -5 5 -16 35 -25 67 -9 31 -20 57 -24 57
-4 0 -23 4 -42 8 -19 4 -52 6 -73 4z"/>
<path d="M1023 1169 c-35 -13 -27 -29 12 -29 34 0 45 -8 78 -54 13 -17 14 -17
20 -2 4 10 -1 23 -13 33 -15 13 -17 20 -8 30 6 7 9 15 7 17 -11 9 -77 13 -96
5z"/>
<path d="M980 1134 c0 -3 9 -17 20 -31 11 -14 20 -38 20 -54 0 -27 1 -28 30
-17 43 14 45 24 13 53 -31 28 -83 59 -83 49z"/>
<path d="M2832 1126 c10 -7 15 -16 11 -19 -3 -4 1 -7 10 -7 10 0 17 -8 17 -20
0 -24 -2 -24 60 0 28 11 56 18 61 15 5 -4 9 3 9 13 0 11 -7 22 -15 26 -8 3
-15 1 -15 -4 0 -6 -9 -10 -20 -10 -11 0 -20 -4 -20 -10 0 -18 -49 -11 -70 10
-11 11 -26 20 -32 20 -8 -1 -6 -6 4 -14z"/>
<path d="M2680 1105 c0 -18 -41 -20 -58 -3 -9 9 -12 6 -12 -16 0 -22 3 -26 19
-21 11 3 22 1 26 -5 9 -15 25 -12 25 5 0 10 10 15 30 15 34 0 39 14 11 30 -27
14 -41 13 -41 -5z"/>
<path d="M2434 1071 c-16 -17 45 -48 73 -37 9 4 19 2 22 -3 4 -5 21 -6 41 -2
30 7 32 9 15 16 -11 5 -26 13 -34 19 -13 10 -108 16 -117 7z"/>
<path d="M2789 1071 c17 -11 4 -34 -15 -27 -20 8 -84 -22 -84 -39 0 -18 1 -18
36 0 38 19 134 20 160 0 10 -8 31 -15 47 -15 15 0 36 -9 47 -20 20 -20 20 -20
20 0 0 23 -32 41 -111 64 -31 9 -64 23 -75 31 -10 8 -23 14 -29 15 -5 0 -4 -4
4 -9z"/>
<path d="M610 1062 c0 -18 35 -41 50 -32 11 7 11 11 1 24 -14 17 -51 22 -51 8z"/>
<path d="M2130 1021 c0 -9 35 -25 88 -40 17 -5 32 -6 32 -1 0 5 8 11 18 13 9
2 -6 4 -34 3 -36 -1 -55 4 -68 17 -19 18 -36 22 -36 8z"/>
<path d="M2060 992 c0 -49 95 -144 170 -171 29 -10 367 -26 485 -23 100 3 256
-69 278 -128 3 -8 6 1 6 21 1 19 -4 40 -11 47 -9 9 -9 12 0 12 7 0 12 7 12 15
0 8 -9 15 -19 15 -11 0 -23 5 -26 11 -4 6 -14 8 -22 5 -8 -4 -32 7 -53 24 -21
16 -43 30 -48 30 -6 0 -18 7 -26 16 -9 8 -16 11 -16 5 0 -5 5 -13 10 -16 15
-9 12 -25 -5 -31 -7 -3 -30 6 -49 21 l-35 27 -18 -21 c-22 -26 -31 -26 -63 -1
-30 23 -58 25 -84 5 -23 -17 -56 -20 -56 -5 0 6 -11 10 -24 10 -13 0 -29 7
-36 15 -13 15 -71 21 -84 8 -4 -4 8 -13 26 -19 28 -10 30 -13 14 -19 -11 -5
-27 -3 -37 3 -10 7 -32 12 -49 12 -17 0 -33 6 -36 14 -3 8 -18 19 -32 25 -43
17 -95 51 -127 82 -36 34 -45 36 -45 11z"/>
<path d="M2365 1003 c-45 -10 -48 -12 -35 -29 7 -8 19 -13 26 -10 7 3 16 1 20
-5 4 -6 11 -6 20 1 8 8 28 9 54 5 33 -6 40 -4 40 9 0 9 -8 16 -19 16 -11 0
-23 5 -26 10 -6 10 -43 12 -80 3z"/>
<path d="M1624 966 c9 -14 16 -36 16 -49 0 -30 27 -55 68 -63 41 -8 40 -1 -1
25 -19 11 -42 38 -52 60 -9 22 -24 42 -33 46 -12 4 -12 2 2 -19z"/>
<path d="M2593 968 c-14 -4 -36 -17 -49 -29 -14 -13 -29 -19 -39 -15 -24 9
-38 -3 -24 -20 16 -19 39 -18 63 5 23 21 94 44 108 35 5 -3 2 -15 -8 -25 -9
-10 -13 -19 -7 -19 5 0 18 9 28 20 13 14 29 19 64 18 25 -1 51 -5 57 -10 7 -5
42 -10 79 -11 36 -2 69 -8 73 -14 7 -10 46 -33 56 -33 16 0 3 37 -16 49 -45
28 -328 64 -385 49z"/>
<path d="M1447 937 c-9 -19 -23 -40 -32 -47 -8 -7 -15 -21 -15 -32 0 -22 -14
-37 -52 -57 -37 -19 -35 -27 10 -36 40 -7 72 -30 72 -52 0 -7 -9 -13 -19 -13
-15 0 -10 -9 23 -43 22 -24 50 -50 61 -58 19 -13 19 -13 6 4 -30 38 -61 119
-55 144 5 17 0 34 -16 54 -12 17 -19 37 -16 44 8 21 51 46 69 39 19 -7 32 -37
18 -42 -15 -5 -14 -27 3 -41 11 -9 15 -8 21 6 15 36 12 59 -14 92 -14 19 -31
43 -37 54 -10 17 -12 16 -27 -16z"/>
<path d="M855 940 l-30 -7 35 -16 c38 -16 63 -41 73 -70 8 -20 27 -14 27 9 0
12 4 12 20 2 27 -17 35 -4 14 27 -28 43 -88 67 -139 55z"/>
<path d="M740 920 c-21 -7 -22 -8 -5 -10 11 -1 30 -3 43 -4 25 -3 30 9 6 18
-9 3 -16 6 -17 5 -1 -1 -13 -5 -27 -9z"/>
<path d="M810 885 c0 -3 17 -23 39 -45 41 -43 69 -54 52 -21 -19 34 -91 87
-91 66z"/>
<path d="M1581 862 c-16 -30 -13 -63 7 -78 14 -10 20 -10 34 3 15 13 18 13 35
-6 21 -25 46 -27 63 -6 10 12 8 16 -15 25 -14 5 -32 10 -40 10 -7 0 -27 16
-43 36 -29 35 -31 35 -41 16z"/>
<path d="M2904 864 c3 -9 6 -21 6 -28 0 -7 6 -13 14 -13 10 0 11 6 2 29 -6 15
-14 28 -19 28 -5 0 -6 -7 -3 -16z"/>
<path d="M1764 789 c-8 -14 14 -29 45 -29 13 0 22 1 20 3 -36 26 -59 35 -65
26z"/>
<path d="M1510 742 c0 -4 11 -24 25 -44 14 -20 25 -43 25 -51 0 -24 13 -27 27
-7 22 31 8 80 -22 80 -12 0 -25 7 -29 15 -6 15 -26 21 -26 7z"/>
<path d="M1296 702 c-3 -5 -8 -32 -12 -61 -6 -50 -8 -52 -33 -46 -33 8 -53 34
-47 61 4 13 0 27 -9 34 -13 10 -15 9 -16 -11 0 -13 -2 -41 -4 -62 -4 -34 -2
-37 15 -32 29 9 60 -12 60 -40 0 -21 5 -25 28 -25 38 0 68 -24 75 -60 7 -31
21 -40 30 -17 10 26 -21 76 -62 99 -28 16 -39 28 -35 38 4 8 11 34 16 58 5 23
19 49 31 57 21 15 21 15 -5 15 -15 0 -29 -4 -32 -8z"/>
<path d="M1692 698 c3 -7 17 -14 31 -16 22 -3 27 -9 27 -30 l0 -27 20 25 19
25 39 -43 c27 -29 47 -42 65 -42 22 0 27 -5 27 -25 0 -14 -4 -25 -10 -25 -5 0
-10 4 -10 9 0 5 -20 9 -44 9 -56 0 -53 -23 6 -38 62 -17 82 -10 86 27 4 44
-20 87 -65 114 -21 13 -41 28 -45 35 -11 17 -151 19 -146 2z m178 -46 c13 -11
20 -24 16 -30 -14 -22 -40 -9 -50 26 -9 27 4 28 34 4z"/>
<path d="M2530 667 c0 -58 46 -93 81 -61 26 24 24 34 -8 34 -15 0 -37 10 -50
22 -19 18 -23 19 -23 5z"/>
<path d="M1094 625 c-13 -20 -15 -39 -11 -83 5 -50 11 -61 46 -94 28 -27 49
-38 71 -38 16 0 32 1 35 3 2 1 11 -7 19 -18 9 -11 16 -16 16 -12 0 5 7 1 16
-7 33 -33 31 -4 -2 32 -28 29 -34 44 -32 71 2 21 -2 36 -9 38 -8 3 -13 -4 -13
-19 -1 -68 -21 -83 -70 -48 -42 30 -65 96 -52 154 5 25 8 46 6 46 -2 0 -11
-11 -20 -25z"/>
<path d="M2861 631 c-33 -21 37 -114 104 -137 28 -9 35 -9 35 1 0 6 -10 17
-22 24 l-23 11 23 -6 c30 -7 28 11 -4 33 -15 10 -41 33 -59 51 -36 36 -35 35
-54 23z"/>
<path d="M1672 608 c3 -7 21 -14 41 -16 28 -2 37 1 37 12 0 12 -11 16 -41 16
-28 0 -39 -4 -37 -12z"/>
<path d="M1614 572 c-10 -31 -7 -92 6 -92 4 0 7 15 5 34 -3 28 0 34 13 29 12
-5 14 -2 9 12 -4 9 -3 23 2 29 7 8 5 12 -8 13 -10 1 -21 -9 -27 -25z"/>
<path d="M1517 511 c-17 -82 2 -153 49 -190 31 -24 30 -31 -3 -31 -26 0 -25
-1 12 -20 47 -24 49 -24 41 -5 -3 8 -1 16 4 16 6 1 15 3 20 4 6 1 13 3 17 4 4
0 -15 16 -42 34 -60 39 -87 86 -82 142 2 22 1 49 -3 60 -5 16 -8 13 -13 -14z"/>
<path d="M1771 466 c-9 -10 -4 -19 21 -38 52 -38 108 -68 126 -67 10 0 12 3 5
6 -17 6 -16 33 1 33 7 0 20 8 27 17 13 15 12 16 -6 8 -53 -22 -79 -18 -113 19
-36 40 -44 43 -61 22z"/>
<path d="M1637 454 c-12 -13 -8 -33 13 -54 25 -25 50 -27 27 -2 -9 9 -20 28
-24 40 -5 13 -12 20 -16 16z"/>
<path d="M1500 234 c0 -7 8 -31 19 -54 13 -29 20 -37 24 -26 3 8 1 18 -4 22
-6 3 -17 20 -25 38 -7 17 -13 26 -14 20z"/>
</g>
</svg>
